<svg width="136" height="32" viewBox="0 0 136 32" fill="none" xmlns="http://www.w3.org/2000/svg">
<g clip-path="url(#clip0_410_2214)">
<path d="M105.637 15.9856C105.637 15.195 105.637 14.4513 105.611 13.7644C105.594 13.1165 105.53 12.4706 105.419 11.8319C105.316 11.2487 105.134 10.6822 104.878 10.1483C104.607 9.59768 104.246 9.09673 103.809 8.66651C103.189 8.03105 102.451 7.52245 101.637 7.16912C100.756 6.81215 99.8131 6.63518 98.8629 6.64867C97.9091 6.63633 96.9623 6.81323 96.0772 7.16912C95.2584 7.51763 94.5161 8.02401 93.8927 8.6594C93.4565 9.08936 93.0965 9.59042 92.8282 10.1411C92.5742 10.6753 92.3949 11.2418 92.2952 11.8248C92.1874 12.4637 92.1257 13.1096 92.1105 13.7573C92.0934 14.4442 92.0849 15.1879 92.0892 15.9785C92.0934 16.7692 92.0892 17.5072 92.1105 18.1983C92.1257 18.8461 92.1874 19.4919 92.2952 20.1308C92.3949 20.7138 92.5742 21.2804 92.8282 21.8145C93.0976 22.3646 93.4574 22.8655 93.8927 23.2962C94.5151 23.9321 95.2577 24.4378 96.0772 24.7837C96.9617 25.1419 97.9088 25.3198 98.8629 25.307C99.8134 25.321 100.757 25.143 101.637 24.7837C102.452 24.435 103.189 23.9296 103.809 23.2962C104.245 22.8652 104.606 22.3644 104.878 21.8145C105.134 21.2805 105.316 20.7141 105.419 20.1308C105.528 19.4939 105.591 18.85 105.608 18.204C105.63 17.5129 105.64 16.7734 105.634 15.9842L105.637 15.9856ZM102.055 15.9856C102.055 16.8616 102.042 17.5911 102.012 18.1713C101.996 18.6479 101.948 19.1228 101.87 19.5933C101.817 19.9067 101.721 20.2115 101.586 20.4991C101.476 20.731 101.333 20.9452 101.16 21.1348C100.893 21.4403 100.562 21.6831 100.19 21.8458C99.7723 22.0248 99.3219 22.1158 98.8672 22.1132C98.4102 22.1151 97.9576 22.0242 97.5369 21.8458C97.1563 21.6862 96.8163 21.4432 96.542 21.1348C96.3681 20.946 96.2243 20.7316 96.1156 20.4991C95.984 20.2112 95.8931 19.9063 95.8456 19.5933C95.7697 19.1226 95.7222 18.6477 95.7034 18.1713C95.6779 17.5911 95.6651 16.8625 95.6651 15.9856C95.6651 15.1097 95.6779 14.3788 95.7034 13.7986C95.7223 13.3221 95.7698 12.8473 95.8456 12.3766C95.8931 12.0635 95.984 11.7587 96.1156 11.4707C96.2246 11.2384 96.3684 11.024 96.542 10.8351C96.8167 10.5271 97.1566 10.2842 97.5369 10.1241C97.957 9.94366 98.41 9.85261 98.8672 9.85674C99.3221 9.85201 99.7729 9.9431 100.19 10.1241C100.562 10.2872 100.893 10.5299 101.16 10.8351C101.332 11.0249 101.476 11.2391 101.586 11.4707C101.721 11.7584 101.817 12.0631 101.87 12.3766C101.948 12.847 101.996 13.322 102.012 13.7986C102.044 14.3773 102.055 15.1083 102.055 15.9856Z" fill="#23AF91"/>
<path d="M134.176 7.12359C134.174 6.95067 134.034 6.81087 133.862 6.80933H130.907C130.734 6.8101 130.593 6.95035 130.593 7.12359V18.0447L123.387 6.89749C123.339 6.82212 123.296 6.80933 123.189 6.80933H120.449C120.277 6.81162 120.137 6.95099 120.135 7.12359V24.8448C120.137 25.0172 120.277 25.1561 120.449 25.1576H123.402C123.575 25.1568 123.714 25.0172 123.715 24.8448V13.8952L130.922 25.068C130.972 25.1434 131.012 25.1562 131.12 25.1562H133.859C134.031 25.1554 134.171 25.016 134.173 24.8434L134.176 7.12359Z" fill="#23AF91"/>
<path d="M114.369 7.12359C114.368 6.95035 114.228 6.8101 114.055 6.80933H111.103C110.93 6.8101 110.79 6.95035 110.789 7.12359V24.8434C110.79 25.0166 110.93 25.1568 111.103 25.1576H114.055C114.228 25.1568 114.368 25.0166 114.369 24.8434V7.12359Z" fill="#23AF91"/>
<path d="M79.0306 15.9856C79.0306 15.1039 79.0405 14.3702 79.0661 13.7857C79.0835 13.3092 79.131 12.8342 79.2082 12.3637C79.4811 10.7853 80.6892 9.85385 82.2313 9.85385C83.2375 9.86238 84.15 10.235 84.7327 11.0825C84.9966 11.4781 85.189 11.9171 85.3012 12.3794C85.3099 12.428 85.3543 12.462 85.4035 12.4576H88.8785C88.9283 12.4576 88.9468 12.4234 88.9382 12.3751C88.5588 10.2236 87.4118 8.29105 85.3851 7.33403C84.389 6.8726 83.3018 6.64173 82.2043 6.65857C80.2477 6.65857 78.5995 7.32882 77.2597 8.66931C76.4948 9.41519 75.9727 10.3747 75.7617 11.4223C75.557 12.4538 75.4537 13.9744 75.4518 15.9842C75.4499 17.994 75.5532 19.5141 75.7617 20.5446C75.9709 21.5936 76.4915 22.555 77.2554 23.3033C78.5943 24.6428 80.2424 25.3126 82.2 25.3126C83.2974 25.3292 84.3844 25.0989 85.3808 24.6386C87.4075 23.6816 88.5545 21.749 88.934 19.5975C88.9425 19.5477 88.924 19.515 88.8743 19.515H85.3979C85.3484 19.5099 85.3035 19.5442 85.2955 19.5933C85.1831 20.055 84.9907 20.4934 84.727 20.8887C84.1443 21.7419 83.2318 22.1102 82.2256 22.1173C80.6835 22.1173 79.4754 21.1873 79.2026 19.6089C79.1254 19.1383 79.0779 18.6634 79.0604 18.1869C79.0405 17.5996 79.0306 16.8644 79.0306 15.9856Z" fill="#23AF91"/>
<path d="M42.3278 7.12359C42.327 6.95035 42.1868 6.8101 42.0137 6.80933H39.0617C38.8886 6.8101 38.7484 6.95035 38.7476 7.12359V24.8448C38.7492 25.0175 38.8891 25.1569 39.0617 25.1578H42.0137C42.1863 25.1569 42.3262 25.0175 42.3278 24.8448V19.643L44.697 16.809L49.5635 25.0638C49.6009 25.1246 49.6683 25.1605 49.7397 25.1578H53.327C53.4918 25.1578 53.5217 25.0552 53.4392 24.9145L47.0677 14.1071L52.9134 7.09089C53.0313 6.94868 52.9816 6.81359 52.7968 6.81359H48.8756C48.8279 6.81078 48.7819 6.83216 48.7533 6.87047L42.3278 14.5807V7.12359Z" fill="#23AF91"/>
<path d="M63.8344 22.1174C62.1729 22.1174 60.6664 20.5787 60.6664 18.7415V7.12359C60.6656 6.95035 60.5254 6.8101 60.3523 6.80933H57.4003C57.2272 6.8101 57.087 6.95035 57.0862 7.12359V18.696C57.0862 22.7416 60.1107 25.3126 63.8344 25.3126C67.5581 25.3126 70.5826 22.7416 70.5826 18.696V7.12359C70.581 6.95067 70.4413 6.81087 70.2685 6.80933H67.3151C67.1425 6.81088 67.0032 6.9509 67.0024 7.12359V18.7415C67.0024 20.5773 65.4944 22.1174 63.8344 22.1174Z" fill="#23AF91"/>
<path fill-rule="evenodd" clip-rule="evenodd" d="M9.07443 15.9857L18.2388 25.1563L24.0233 19.3687C25.0577 18.4368 26.6401 18.4783 27.6243 19.463C28.6085 20.4477 28.6499 22.031 27.7186 23.0659L20.085 30.705C19.0596 31.714 17.4151 31.714 16.3897 30.705L5.37629 19.683V26.2342C5.37629 27.68 4.20482 28.8521 2.75974 28.8521C1.31466 28.8521 0.143188 27.68 0.143188 26.2342V5.72868C0.143188 4.28284 1.31466 3.11075 2.75974 3.11075C4.20482 3.11075 5.37629 4.28284 5.37629 5.72868V12.2799L16.3883 1.2607C17.4133 0.25099 19.0585 0.25099 20.0836 1.2607L27.7229 8.89836C28.6542 9.93327 28.6128 11.5166 27.6286 12.5013C26.6444 13.486 25.0619 13.5275 24.0276 12.5956L18.243 6.808L9.07443 15.9857ZM18.243 13.3649C17.1834 13.3643 16.2279 14.0025 15.822 14.9818C15.4161 15.9611 15.6399 17.0885 16.3889 17.8384C17.1379 18.5882 18.2647 18.8127 19.2437 18.4071C20.2226 18.0016 20.861 17.0458 20.861 15.9857C20.8614 15.2906 20.5858 14.6239 20.0948 14.1321C19.6038 13.6404 18.9377 13.3639 18.243 13.3635V13.3649Z" fill="#23AF91"/>
</g>
<defs>
<clipPath id="clip0_410_2214">
<rect width="135" height="31" fill="white" transform="translate(0.143188 0.5)"/>
</clipPath>
</defs>
</svg>
