<svg width="189" height="42" viewBox="0 0 189 42" fill="none" xmlns="http://www.w3.org/2000/svg">
<g clip-path="url(#clip0_410_2208)">
<path d="M72.0767 33.0197H65.5343V14.471H72.1256C73.9745 14.471 75.5791 14.8375 76.9177 15.5706C78.2402 16.2881 79.3172 17.3961 80.0065 18.7483C80.736 20.1419 81.0762 21.779 81.0762 23.7091C81.0762 25.6401 80.7115 27.302 79.9821 28.6956C79.2844 30.056 78.1995 31.1716 76.8688 31.8972C75.5556 32.6541 73.9501 33.0207 72.0767 33.0207V33.0197ZM69.4259 29.6473H71.9075C73.6343 29.6473 74.9474 29.1834 75.847 28.2298C76.7466 27.301 77.1846 25.7862 77.1846 23.7081C77.1846 21.6559 76.7466 20.1649 75.847 19.2122C74.9474 18.2825 73.6333 17.8186 71.9065 17.8186H69.4259V29.6473ZM83.9949 33.0197H79.8119L86.1842 14.4949H91.2188L97.5667 33.0197H93.3837L92.0207 28.7911H85.357L83.9949 33.0197ZM86.3543 25.7365H91.0487L88.7852 18.7225H88.6395L86.3534 25.7365H86.3543ZM113.571 23.7578C113.571 25.7862 113.182 27.4967 112.428 28.9142C111.674 30.3317 110.628 31.4075 109.339 32.1644C108.025 32.8975 106.566 33.2889 104.936 33.2889C103.307 33.2889 101.823 32.9223 100.534 32.1644C99.2211 31.4075 98.1993 30.3317 97.4454 28.9142C96.6915 27.4967 96.3024 25.7862 96.3024 23.7816C96.3024 21.7532 96.6915 20.0427 97.4454 18.6252C98.1993 17.2077 99.2211 16.1319 100.534 15.3749C101.847 14.6409 103.307 14.2505 104.936 14.2505C106.566 14.2505 108.025 14.617 109.339 15.3749C110.652 16.108 111.674 17.2077 112.428 18.6252C113.206 19.994 113.571 21.7294 113.571 23.7578ZM109.631 23.7578C109.631 21.8019 109.193 20.287 108.342 19.2599C107.49 18.2338 106.347 17.6964 104.936 17.6964C103.526 17.6964 102.382 18.209 101.532 19.2599C100.68 20.3109 100.242 21.8019 100.242 23.7578C100.242 25.7127 100.68 27.2275 101.532 28.2537C102.382 29.2808 103.526 29.8191 104.936 29.8191C106.347 29.8191 107.49 29.3056 108.342 28.2537C109.193 27.2037 109.631 25.7127 109.631 23.7578ZM118.8 14.471H123.616L128.699 26.9345H128.918L134.002 14.47H138.793V33.0197H134.999V20.9466H134.853L130.086 32.9224H127.508L122.741 20.8979H122.594V33.0207H118.8V14.4691V14.471ZM144.46 33.2641C143.147 33.2641 142.052 32.9224 141.177 32.2141C140.301 31.5287 139.864 30.4778 139.864 29.1099C139.864 28.0828 140.106 27.2524 140.593 26.6663C141.079 26.0792 141.712 25.6392 142.515 25.37C143.34 25.0829 144.198 24.9024 145.069 24.8326C146.261 24.7104 147.136 24.5882 147.646 24.4412C148.157 24.2952 148.424 24.026 148.424 23.5621V23.5124C148.424 22.9512 148.254 22.4863 147.89 22.1933C147.525 21.8754 147.039 21.7284 146.382 21.7284C145.7 21.7284 145.141 21.8754 144.727 22.1933C144.332 22.465 144.047 22.873 143.926 23.3416L140.374 23.0485C140.642 21.7771 141.298 20.7758 142.345 20.0417C143.39 19.3096 144.752 18.9182 146.406 18.9182C147.428 18.9182 148.401 19.09 149.276 19.4069C150.176 19.7248 150.882 20.2374 151.441 20.9218C152 21.6062 152.268 22.5111 152.268 23.6108V33.0197H148.619V31.0896H148.522C148.172 31.7489 147.65 32.2985 147.014 32.6789C146.333 33.0703 145.482 33.265 144.46 33.265V33.2641ZM145.555 30.6248C146.406 30.6248 147.087 30.3804 147.623 29.8917C147.88 29.6646 148.086 29.3827 148.225 29.066C148.363 28.7493 148.431 28.4055 148.424 28.0589V26.5918C148.279 26.6901 148.035 26.7875 147.719 26.861C147.39 26.9403 147.057 27.0056 146.722 27.0567C146.357 27.1054 146.042 27.154 145.774 27.2037C145.093 27.301 144.557 27.4967 144.144 27.7649C143.731 28.0589 143.536 28.4742 143.536 29.0116C143.536 29.549 143.731 29.9404 144.12 30.2095C144.485 30.4778 144.971 30.6248 145.555 30.6248ZM153.727 33.0197V14.471H157.57V24.3696H157.789L162.215 19.091H166.618L161.486 25.1027L166.885 32.9968H162.386L158.591 27.4003L157.546 28.5973V33.0207H153.727V33.0197Z" fill="white"/>
<path d="M172.431 33.2889C171.02 33.2889 169.804 32.9958 168.758 32.4088C167.75 31.8402 166.929 30.9814 166.399 29.9403C165.84 28.8655 165.572 27.595 165.572 26.1279C165.572 24.7104 165.84 23.4399 166.399 22.3641C166.958 21.2893 167.737 20.434 168.734 19.847C169.731 19.2361 170.923 18.943 172.285 18.943C173.501 18.943 174.596 19.2113 175.593 19.7248C176.566 20.2383 177.344 21.0201 177.928 22.0711C178.512 23.122 178.803 24.4173 178.803 26.0057V27.0567H169.391C169.391 28.0838 169.683 28.9142 170.242 29.5003C170.801 30.0873 171.579 30.4052 172.528 30.4052C173.161 30.4052 173.72 30.2582 174.182 29.99C174.642 29.7207 174.995 29.297 175.18 28.792L178.73 29.0364C178.463 30.3317 177.782 31.3579 176.687 32.1406C175.569 32.8985 174.158 33.2889 172.431 33.2889ZM169.367 24.6617H175.18C175.18 23.8313 174.912 23.1469 174.377 22.6094C173.842 22.0711 173.185 21.8019 172.333 21.8019C171.483 21.8019 170.777 22.0711 170.242 22.6323C169.716 23.1774 169.404 23.8994 169.367 24.6617ZM179.752 33.0197V19.1139H183.473V21.5327H183.619C183.862 20.6774 184.3 20.0178 184.884 19.5778C185.468 19.1387 186.173 18.9182 186.927 18.9182C187.365 18.9182 187.754 18.9669 188.143 19.0652V22.4863C187.895 22.4234 187.643 22.3743 187.389 22.3393C187.073 22.2916 186.781 22.2916 186.513 22.2916C185.663 22.2916 184.957 22.5588 184.422 23.0972C183.862 23.6346 183.595 24.319 183.595 25.1743V33.0207H179.752V33.0197Z" fill="white"/>
<path d="M0.885788 41.9275L19.3126 7.26982L35.5596 0L17.1346 34.6576L0.885788 41.9275Z" fill="url(#paint0_linear_410_2208)"/>
<path d="M19.2637 34.0056L33.2622 7.6792L41.2071 15.6019L27.3994 41.9999L19.2637 34.0056Z" fill="url(#paint1_linear_410_2208)"/>
<path d="M42.7628 16.3992L53.1235 20.2154L47.9544 29.8277L35.3922 30.262L42.7618 16.3992H42.7628Z" fill="url(#paint2_linear_410_2208)"/>
</g>
<defs>
<linearGradient id="paint0_linear_410_2208" x1="0.923387" y1="41.9026" x2="54.7078" y2="0.390587" gradientUnits="userSpaceOnUse">
<stop stop-color="#48D5FF"/>
<stop offset="1" stop-color="#1FA5FF"/>
</linearGradient>
<linearGradient id="paint1_linear_410_2208" x1="1.38681" y1="42.019" x2="57.3834" y2="0.402022" gradientUnits="userSpaceOnUse">
<stop stop-color="#48D5FF"/>
<stop offset="1" stop-color="#1FA5FF"/>
</linearGradient>
<linearGradient id="paint2_linear_410_2208" x1="1.15557" y1="41.8445" x2="55.4621" y2="1.24148" gradientUnits="userSpaceOnUse">
<stop stop-color="#48D5FF"/>
<stop offset="1" stop-color="#1FA5FF"/>
</linearGradient>
<clipPath id="clip0_410_2208">
<rect width="188" height="42" fill="white" transform="translate(0.143188)"/>
</clipPath>
</defs>
</svg>
