<svg width="1413" height="387" viewBox="0 0 1413 387" fill="none" xmlns="http://www.w3.org/2000/svg">
<circle cx="511.5" cy="100.5" r="6.5" fill="#3494E8"/>
<path d="M115 385L122.601 373.679C122.893 373.244 123.003 372.711 122.906 372.196L116.7 339.075C116.348 337.197 118.857 336.224 119.864 337.848V337.848C120.779 339.325 123.057 338.676 123.057 336.939V255.5M123.057 228V255.5M123.057 255.5L138.602 271.417C138.967 271.791 139.171 272.292 139.171 272.815V292.762C139.171 294.656 141.56 295.489 142.738 294.005L148.697 286.495C149.875 285.011 152.264 285.844 152.264 287.738V293.5V301.653C152.264 303.166 153.879 304.131 155.211 303.415L161.402 300.085C162.734 299.369 164.349 300.334 164.349 301.847V338.5V342.696C164.349 344.474 166.496 345.368 167.758 344.115L172.822 339.087C173.201 338.711 173.413 338.2 173.413 337.667V325.968C173.413 323.681 176.631 323.185 177.32 325.366L181.214 337.689C181.378 338.207 181.745 338.636 182.232 338.878L187.199 341.344C187.407 341.447 187.631 341.513 187.861 341.54L200.418 342.978C200.543 342.993 200.669 342.995 200.794 342.986L220.296 341.534C220.594 341.512 220.883 341.423 221.142 341.275L233.027 334.466C233.543 334.171 234.163 334.12 234.719 334.327L244.624 338.015C245.407 338.307 245.926 339.054 245.926 339.889V341.458C245.926 342.367 246.539 343.161 247.418 343.392L262.798 347.434C262.963 347.478 263.134 347.5 263.306 347.5H270.503C270.895 347.5 271.279 347.384 271.606 347.168L279.168 342.163C279.784 341.755 280.574 341.72 281.224 342.072L290.801 347.259C291.094 347.417 291.421 347.5 291.754 347.5H301.318L369.803 355L394.806 359.469C394.923 359.49 395.04 359.5 395.158 359.5H404.059C405.164 359.5 406.059 358.605 406.059 357.5V305.475C406.059 305.163 406.133 304.855 406.273 304.576L411.59 294.017C412.436 292.337 414.923 292.648 415.329 294.485L422.282 325.935C422.644 327.573 424.74 328.065 425.792 326.759L430.795 320.549C431.081 320.194 431.238 319.751 431.238 319.295V305.34C431.238 305.115 431.276 304.891 431.35 304.679L439.182 282.321C439.257 282.109 439.295 281.885 439.295 281.66V279.264C439.295 278.772 439.476 278.297 439.804 277.93L450.87 265.57C451.198 265.203 451.38 264.728 451.38 264.236V258.726C451.38 257.242 452.94 256.274 454.269 256.934L469.405 264.449C470.085 264.786 470.515 265.48 470.515 266.24V271.059C470.515 271.655 470.781 272.22 471.24 272.6L480.025 279.869C481.19 280.833 482.962 280.205 483.261 278.723L491.626 237.195C491.652 237.065 491.665 236.933 491.665 236.801V221.609C491.665 221.212 491.783 220.824 492.005 220.494L498.375 211.006C498.597 210.676 498.715 210.288 498.715 209.891V198.327C498.715 198.11 498.75 197.895 498.819 197.69L506.691 174.241C506.745 174.081 506.778 173.915 506.79 173.747L511 115L512.815 172V172C512.815 172.905 514.121 173.036 514.3 172.149L518.091 153.393C518.552 151.111 521.88 151.325 522.046 153.647L523.192 169.681C523.347 171.855 526.374 172.248 527.079 170.186L529.065 164.38C529.796 162.242 532.957 162.767 532.957 165.027V181.525C532.957 181.837 533.03 182.145 533.171 182.424L536.868 189.765C536.946 189.921 537.004 190.086 537.039 190.257L543.029 219L545.618 236.532C545.9 238.437 548.446 238.883 549.358 237.187L555.381 225.992C556.366 224.161 559.143 224.861 559.143 226.939V236.642C559.143 236.879 559.184 237.114 559.266 237.335L562.664 246.531C563.303 248.261 565.581 248.22 566.011 246.427C567.947 238.346 568.911 228 570.221 228C571.442 228 572.974 220.442 574.521 215.764C575.014 214.273 576.604 214.441 577.07 215.94L585.193 242.065C585.282 242.351 585.434 242.614 585.638 242.833L597.413 255.5C602.113 259.5 608.694 269.8 609.5 265C610.149 261.135 611.929 251.715 612.422 245.93C612.552 244.402 614.243 243.31 615.631 243.963L631.477 251.416C631.596 251.472 631.72 251.516 631.847 251.547L647.532 255.441C647.69 255.48 647.852 255.5 648.014 255.5H654.819H677.729C677.898 255.5 678.066 255.521 678.23 255.564L697.468 260.547C699.026 260.951 699.493 262.937 698.278 263.993L690.842 270.453C689.91 271.263 689.927 272.716 690.879 273.504L699.75 280.844C700.543 281.5 701.704 281.447 702.434 280.722L708.919 274.284C709.975 273.235 711.765 273.666 712.228 275.08L718.268 293.5L724.198 309.69C724.273 309.895 724.381 310.087 724.518 310.257L731.226 318.582C731.873 319.386 733.026 319.564 733.887 318.995L746.973 310.332C747.3 310.116 747.684 310 748.077 310H775.689C776.793 310 777.689 310.895 777.689 312V322.756C777.689 323.236 777.861 323.7 778.175 324.063L786.302 333.477C786.594 333.816 786.992 334.047 787.431 334.133L824.833 341.463C824.96 341.487 825.089 341.5 825.218 341.5H833.897C834.024 341.5 834.151 341.512 834.275 341.536L865.122 347.464C865.246 347.488 865.367 347.5 865.494 347.5C872.641 347.5 888.751 347.5 897.537 347.5C906.213 347.5 922.674 347.5 930.293 347.5C930.612 347.5 930.92 347.424 931.203 347.278L955.874 334.559C956.539 334.216 956.957 333.53 956.957 332.781V316.25M956.957 298.5V316.25M956.957 316.25C965.014 313.5 981.128 306.1 981.128 298.5C981.128 292.147 981.128 281.859 981.128 275.344C981.128 273.831 982.743 272.869 984.076 273.585L990.266 276.915C991.599 277.631 993.214 276.666 993.214 275.153V258.269C993.214 256.905 994.548 255.942 995.842 256.37L1008.71 260.63C1010.01 261.058 1011.34 260.095 1011.34 258.731V237V234.81C1011.34 232.814 1013.95 232.049 1015.02 233.728L1026.13 251.006C1026.34 251.328 1026.45 251.704 1026.45 252.087V263C1026.45 264.105 1027.34 265 1028.45 265H1043.36C1043.5 265 1043.64 264.985 1043.78 264.954L1057.26 262.027C1058.51 261.756 1059.68 262.705 1059.68 263.981V270.852C1059.68 271.563 1060.06 272.22 1060.68 272.579L1075.91 281.48C1076.47 281.806 1077.16 281.842 1077.75 281.576L1098.12 272.38C1098.65 272.139 1099.27 272.144 1099.8 272.395L1120.11 282L1133.25 288.522C1133.85 288.821 1134.56 288.798 1135.14 288.462L1151.62 278.92C1152.08 278.651 1152.63 278.58 1153.15 278.721L1189.86 288.794C1190.34 288.927 1190.76 289.235 1191.02 289.658L1200.33 304.435C1200.56 304.802 1200.9 305.084 1201.31 305.238L1212.29 309.432C1213.16 309.765 1214.14 309.452 1214.66 308.679L1224.71 293.708C1224.81 293.57 1224.88 293.421 1224.94 293.263L1229.47 280.522C1230.03 278.924 1232.21 278.714 1233.07 280.172L1240.74 293.111C1240.89 293.367 1241.09 293.586 1241.34 293.752L1256.45 303.9C1257.36 304.51 1258.59 304.278 1259.21 303.379L1268.57 289.861C1268.94 289.322 1269.56 289 1270.21 289H1279.91C1280.13 289 1280.35 289.037 1280.56 289.109L1292.73 293.292C1293.13 293.427 1293.55 293.436 1293.95 293.317L1305.87 289.766C1307.16 289.384 1308.44 290.345 1308.44 291.683V291.834C1308.44 292.799 1309.13 293.627 1310.08 293.801L1333.27 298.066C1334.5 298.292 1335.64 297.348 1335.64 296.099V284.466C1335.64 282.547 1338.08 281.73 1339.23 283.261L1350.14 297.705C1350.52 298.206 1351.11 298.5 1351.74 298.5H1360.45C1360.69 298.5 1360.93 298.544 1361.16 298.63L1376.93 304.619C1377.56 304.857 1378.26 304.765 1378.81 304.375L1387 298.5" stroke="url(#paint0_linear_427_2313)" stroke-width="6"/>
<path d="M115 356L122.601 344.679C122.893 344.244 123.003 343.711 122.906 343.196L116.7 310.075C116.348 308.197 118.857 307.224 119.864 308.848V308.848C120.779 310.325 123.057 309.676 123.057 307.939V226.5M123.057 199V226.5M123.057 226.5L138.602 242.417C138.967 242.791 139.171 243.292 139.171 243.815V263.762C139.171 265.656 141.56 266.489 142.738 265.005L148.697 257.495C149.875 256.011 152.264 256.844 152.264 258.738V264.5V272.653C152.264 274.166 153.879 275.131 155.211 274.415L161.402 271.085C162.734 270.369 164.349 271.334 164.349 272.847V309.5V313.696C164.349 315.474 166.496 316.368 167.758 315.115L172.822 310.087C173.201 309.711 173.413 309.2 173.413 308.667V296.968C173.413 294.681 176.631 294.185 177.32 296.366L181.214 308.689C181.378 309.207 181.745 309.636 182.232 309.878L187.199 312.344C187.407 312.447 187.631 312.513 187.861 312.54L200.418 313.978C200.543 313.993 200.669 313.995 200.794 313.986L220.296 312.534C220.594 312.512 220.883 312.423 221.142 312.275L233.027 305.466C233.543 305.171 234.163 305.12 234.719 305.327L244.624 309.015C245.407 309.307 245.926 310.054 245.926 310.889V312.458C245.926 313.367 246.539 314.161 247.418 314.392L262.798 318.434C262.963 318.478 263.134 318.5 263.306 318.5H270.503C270.895 318.5 271.279 318.384 271.606 318.168L279.168 313.163C279.784 312.755 280.574 312.72 281.224 313.072L290.801 318.259C291.094 318.417 291.421 318.5 291.754 318.5H301.318L369.803 326L394.806 330.469C394.923 330.49 395.04 330.5 395.158 330.5H404.059C405.164 330.5 406.059 329.605 406.059 328.5V276.475C406.059 276.163 406.133 275.855 406.273 275.576L411.59 265.017C412.436 263.337 414.923 263.648 415.329 265.485L422.282 296.935C422.644 298.573 424.74 299.065 425.792 297.759L430.795 291.549C431.081 291.194 431.238 290.751 431.238 290.295V276.34C431.238 276.115 431.276 275.891 431.35 275.679L439.182 253.321C439.257 253.109 439.295 252.885 439.295 252.66V250.264C439.295 249.772 439.476 249.297 439.804 248.93L450.87 236.57C451.198 236.203 451.38 235.728 451.38 235.236V229.726C451.38 228.242 452.94 227.274 454.269 227.934L469.405 235.449C470.085 235.786 470.515 236.48 470.515 237.24V242.059C470.515 242.655 470.781 243.22 471.24 243.6L480.025 250.869C481.19 251.833 482.962 251.205 483.261 249.723L491.626 208.195C491.652 208.065 491.665 207.933 491.665 207.801V192.609C491.665 192.212 491.783 191.824 492.005 191.494L498.375 182.006C498.597 181.676 498.715 181.288 498.715 180.891V169.327C498.715 169.11 498.75 168.895 498.819 168.69L506.691 145.241C506.745 145.081 506.778 144.915 506.79 144.747L511 86L512.815 143V143C512.815 143.905 514.121 144.036 514.3 143.149L518.091 124.393C518.552 122.111 521.88 122.325 522.046 124.647L523.192 140.681C523.347 142.855 526.374 143.248 527.079 141.186L529.065 135.38C529.796 133.242 532.957 133.767 532.957 136.027V152.525C532.957 152.837 533.03 153.145 533.171 153.424L536.868 160.765C536.946 160.921 537.004 161.086 537.039 161.257L543.029 190L545.618 207.532C545.9 209.437 548.446 209.883 549.358 208.187L555.381 196.992C556.366 195.161 559.143 195.861 559.143 197.939V207.642C559.143 207.879 559.184 208.114 559.266 208.335L562.664 217.531C563.303 219.261 565.581 219.22 566.011 217.427C567.947 209.346 568.911 199 570.221 199C571.442 199 572.974 191.442 574.521 186.764C575.014 185.273 576.604 185.441 577.07 186.94L585.193 213.065C585.282 213.351 585.434 213.614 585.638 213.833L597.413 226.5C602.113 230.5 608.694 240.8 609.5 236C610.149 232.135 611.929 222.715 612.422 216.93C612.552 215.402 614.243 214.31 615.631 214.963L631.477 222.416C631.596 222.472 631.72 222.516 631.847 222.547L647.532 226.441C647.69 226.48 647.852 226.5 648.014 226.5H654.819H677.729C677.898 226.5 678.066 226.521 678.23 226.564L697.468 231.547C699.026 231.951 699.493 233.937 698.278 234.993L690.842 241.453C689.91 242.263 689.927 243.716 690.879 244.504L699.75 251.844C700.543 252.5 701.704 252.447 702.434 251.722L708.919 245.284C709.975 244.235 711.765 244.666 712.228 246.08L718.268 264.5L724.198 280.69C724.273 280.895 724.381 281.087 724.518 281.257L731.226 289.582C731.873 290.386 733.026 290.564 733.887 289.995L746.973 281.332C747.3 281.116 747.684 281 748.077 281H775.689C776.793 281 777.689 281.895 777.689 283V293.756C777.689 294.236 777.861 294.7 778.175 295.063L786.302 304.477C786.594 304.816 786.992 305.047 787.431 305.133L824.833 312.463C824.96 312.487 825.089 312.5 825.218 312.5H833.897C834.024 312.5 834.151 312.512 834.275 312.536L865.122 318.464C865.246 318.488 865.367 318.5 865.494 318.5C872.641 318.5 888.751 318.5 897.537 318.5C906.213 318.5 922.674 318.5 930.293 318.5C930.612 318.5 930.92 318.424 931.203 318.278L955.874 305.559C956.539 305.216 956.957 304.53 956.957 303.781V287.25M956.957 269.5V287.25M956.957 287.25C965.014 284.5 981.128 277.1 981.128 269.5C981.128 263.147 981.128 252.859 981.128 246.344C981.128 244.831 982.743 243.869 984.076 244.585L990.266 247.915C991.599 248.631 993.214 247.666 993.214 246.153V229.269C993.214 227.905 994.548 226.942 995.842 227.37L1008.71 231.63C1010.01 232.058 1011.34 231.095 1011.34 229.731V208V205.81C1011.34 203.814 1013.95 203.049 1015.02 204.728L1026.13 222.006C1026.34 222.328 1026.45 222.704 1026.45 223.087V234C1026.45 235.105 1027.34 236 1028.45 236H1043.36C1043.5 236 1043.64 235.985 1043.78 235.954L1057.26 233.027C1058.51 232.756 1059.68 233.705 1059.68 234.981V241.852C1059.68 242.563 1060.06 243.22 1060.68 243.579L1075.91 252.48C1076.47 252.806 1077.16 252.842 1077.75 252.576L1098.12 243.38C1098.65 243.139 1099.27 243.144 1099.8 243.395L1120.11 253L1133.25 259.522C1133.85 259.821 1134.56 259.798 1135.14 259.462L1151.62 249.92C1152.08 249.651 1152.63 249.58 1153.15 249.721L1189.86 259.794C1190.34 259.927 1190.76 260.235 1191.02 260.658L1200.33 275.435C1200.56 275.802 1200.9 276.084 1201.31 276.238L1212.29 280.432C1213.16 280.765 1214.14 280.452 1214.66 279.679L1224.71 264.708C1224.81 264.57 1224.88 264.421 1224.94 264.263L1229.47 251.522C1230.03 249.924 1232.21 249.714 1233.07 251.172L1240.74 264.111C1240.89 264.367 1241.09 264.586 1241.34 264.752L1256.45 274.9C1257.36 275.51 1258.59 275.278 1259.21 274.379L1268.57 260.861C1268.94 260.322 1269.56 260 1270.21 260H1279.91C1280.13 260 1280.35 260.037 1280.56 260.109L1292.73 264.292C1293.13 264.427 1293.55 264.436 1293.95 264.317L1305.87 260.766C1307.16 260.384 1308.44 261.345 1308.44 262.683V262.834C1308.44 263.799 1309.13 264.627 1310.08 264.801L1333.27 269.066C1334.5 269.292 1335.64 268.348 1335.64 267.099V255.466C1335.64 253.547 1338.08 252.73 1339.23 254.261L1350.14 268.705C1350.52 269.206 1351.11 269.5 1351.74 269.5H1360.45C1360.69 269.5 1360.93 269.544 1361.16 269.63L1376.93 275.619C1377.56 275.857 1378.26 275.765 1378.81 275.375L1387 269.5" stroke="url(#paint1_linear_427_2313)" stroke-opacity="0.2" stroke-width="6"/>
<path d="M115 321L122.601 309.679C122.893 309.244 123.003 308.711 122.906 308.196L116.7 275.075C116.348 273.197 118.857 272.224 119.864 273.848V273.848C120.779 275.325 123.057 274.676 123.057 272.939V191.5M123.057 164V191.5M123.057 191.5L138.602 207.417C138.967 207.791 139.171 208.292 139.171 208.815V228.762C139.171 230.656 141.56 231.489 142.738 230.005L148.697 222.495C149.875 221.011 152.264 221.844 152.264 223.738V229.5V237.653C152.264 239.166 153.879 240.131 155.211 239.415L161.402 236.085C162.734 235.369 164.349 236.334 164.349 237.847V274.5V278.696C164.349 280.474 166.496 281.368 167.758 280.115L172.822 275.087C173.201 274.711 173.413 274.2 173.413 273.667V261.968C173.413 259.681 176.631 259.185 177.32 261.366L181.214 273.689C181.378 274.207 181.745 274.636 182.232 274.878L187.199 277.344C187.407 277.447 187.631 277.513 187.861 277.54L200.418 278.978C200.543 278.993 200.669 278.995 200.794 278.986L220.296 277.534C220.594 277.512 220.883 277.423 221.142 277.275L233.027 270.466C233.543 270.171 234.163 270.12 234.719 270.327L244.624 274.015C245.407 274.307 245.926 275.054 245.926 275.889V277.458C245.926 278.367 246.539 279.161 247.418 279.392L262.798 283.434C262.963 283.478 263.134 283.5 263.306 283.5H270.503C270.895 283.5 271.279 283.384 271.606 283.168L279.168 278.163C279.784 277.755 280.574 277.72 281.224 278.072L290.801 283.259C291.094 283.417 291.421 283.5 291.754 283.5H301.318L369.803 291L394.806 295.469C394.923 295.49 395.04 295.5 395.158 295.5H404.059C405.164 295.5 406.059 294.605 406.059 293.5V241.475C406.059 241.163 406.133 240.855 406.273 240.576L411.59 230.017C412.436 228.337 414.923 228.648 415.329 230.485L422.282 261.935C422.644 263.573 424.74 264.065 425.792 262.759L430.795 256.549C431.081 256.194 431.238 255.751 431.238 255.295V241.34C431.238 241.115 431.276 240.891 431.35 240.679L439.182 218.321C439.257 218.109 439.295 217.885 439.295 217.66V215.264C439.295 214.772 439.476 214.297 439.804 213.93L450.87 201.57C451.198 201.203 451.38 200.728 451.38 200.236V194.726C451.38 193.242 452.94 192.274 454.269 192.934L469.405 200.449C470.085 200.786 470.515 201.48 470.515 202.24V207.059C470.515 207.655 470.781 208.22 471.24 208.6L480.025 215.869C481.19 216.833 482.962 216.205 483.261 214.723L491.626 173.195C491.652 173.065 491.665 172.933 491.665 172.801V157.609C491.665 157.212 491.783 156.824 492.005 156.494L498.375 147.006C498.597 146.676 498.715 146.288 498.715 145.891V134.327C498.715 134.11 498.75 133.895 498.819 133.69L506.691 110.241C506.745 110.081 506.778 109.915 506.79 109.747L511 51L512.815 108V108C512.815 108.905 514.121 109.036 514.3 108.149L518.091 89.3933C518.552 87.1114 521.88 87.3248 522.046 89.647L523.192 105.681C523.347 107.855 526.374 108.248 527.079 106.186L529.065 100.38C529.796 98.2416 532.957 98.7672 532.957 101.027V117.525C532.957 117.837 533.03 118.145 533.171 118.424L536.868 125.765C536.946 125.921 537.004 126.086 537.039 126.257L543.029 155L545.618 172.532C545.9 174.437 548.446 174.883 549.358 173.187L555.381 161.992C556.366 160.161 559.143 160.861 559.143 162.939V172.642C559.143 172.879 559.184 173.114 559.266 173.335L562.664 182.531C563.303 184.261 565.581 184.22 566.011 182.427C567.947 174.346 568.911 164 570.221 164C571.442 164 572.974 156.442 574.521 151.764C575.014 150.273 576.604 150.441 577.07 151.94L585.193 178.065C585.282 178.351 585.434 178.614 585.638 178.833L597.413 191.5C602.113 195.5 608.694 205.8 609.5 201C610.149 197.135 611.929 187.715 612.422 181.93C612.552 180.402 614.243 179.31 615.631 179.963L631.477 187.416C631.596 187.472 631.72 187.516 631.847 187.547L647.532 191.441C647.69 191.48 647.852 191.5 648.014 191.5H654.819H677.729C677.898 191.5 678.066 191.521 678.23 191.564L697.468 196.547C699.026 196.951 699.493 198.937 698.278 199.993L690.842 206.453C689.91 207.263 689.927 208.716 690.879 209.504L699.75 216.844C700.543 217.5 701.704 217.447 702.434 216.722L708.919 210.284C709.975 209.235 711.765 209.666 712.228 211.08L718.268 229.5L724.198 245.69C724.273 245.895 724.381 246.087 724.518 246.257L731.226 254.582C731.873 255.386 733.026 255.564 733.887 254.995L746.973 246.332C747.3 246.116 747.684 246 748.077 246H775.689C776.793 246 777.689 246.895 777.689 248V258.756C777.689 259.236 777.861 259.7 778.175 260.063L786.302 269.477C786.594 269.816 786.992 270.047 787.431 270.133L824.833 277.463C824.96 277.487 825.089 277.5 825.218 277.5H833.897C834.024 277.5 834.151 277.512 834.275 277.536L865.122 283.464C865.246 283.488 865.367 283.5 865.494 283.5C872.641 283.5 888.751 283.5 897.537 283.5C906.213 283.5 922.674 283.5 930.293 283.5C930.612 283.5 930.92 283.424 931.203 283.278L955.874 270.559C956.539 270.216 956.957 269.53 956.957 268.781V252.25M956.957 234.5V252.25M956.957 252.25C965.014 249.5 981.128 242.1 981.128 234.5C981.128 228.147 981.128 217.859 981.128 211.344C981.128 209.831 982.743 208.869 984.076 209.585L990.266 212.915C991.599 213.631 993.214 212.666 993.214 211.153V194.269C993.214 192.905 994.548 191.942 995.842 192.37L1008.71 196.63C1010.01 197.058 1011.34 196.095 1011.34 194.731V173V170.81C1011.34 168.814 1013.95 168.049 1015.02 169.728L1026.13 187.006C1026.34 187.328 1026.45 187.704 1026.45 188.087V199C1026.45 200.105 1027.34 201 1028.45 201H1043.36C1043.5 201 1043.64 200.985 1043.78 200.954L1057.26 198.027C1058.51 197.756 1059.68 198.705 1059.68 199.981V206.852C1059.68 207.563 1060.06 208.22 1060.68 208.579L1075.91 217.48C1076.47 217.806 1077.16 217.842 1077.75 217.576L1098.12 208.38C1098.65 208.139 1099.27 208.144 1099.8 208.395L1120.11 218L1133.25 224.522C1133.85 224.821 1134.56 224.798 1135.14 224.462L1151.62 214.92C1152.08 214.651 1152.63 214.58 1153.15 214.721L1189.86 224.794C1190.34 224.927 1190.76 225.235 1191.02 225.658L1200.33 240.435C1200.56 240.802 1200.9 241.084 1201.31 241.238L1212.29 245.432C1213.16 245.765 1214.14 245.452 1214.66 244.679L1224.71 229.708C1224.81 229.57 1224.88 229.421 1224.94 229.263L1229.47 216.522C1230.03 214.924 1232.21 214.714 1233.07 216.172L1240.74 229.111C1240.89 229.367 1241.09 229.586 1241.34 229.752L1256.45 239.9C1257.36 240.51 1258.59 240.278 1259.21 239.379L1268.57 225.861C1268.94 225.322 1269.56 225 1270.21 225H1279.91C1280.13 225 1280.35 225.037 1280.56 225.109L1292.73 229.292C1293.13 229.427 1293.55 229.436 1293.95 229.317L1305.87 225.766C1307.16 225.384 1308.44 226.345 1308.44 227.683V227.834C1308.44 228.799 1309.13 229.627 1310.08 229.801L1333.27 234.066C1334.5 234.292 1335.64 233.348 1335.64 232.099V220.466C1335.64 218.547 1338.08 217.73 1339.23 219.261L1350.14 233.705C1350.52 234.206 1351.11 234.5 1351.74 234.5H1360.45C1360.69 234.5 1360.93 234.544 1361.16 234.63L1376.93 240.619C1377.56 240.857 1378.26 240.765 1378.81 240.375L1387 234.5" stroke="url(#paint2_linear_427_2313)" stroke-opacity="0.05" stroke-width="6"/>
<rect x="384" width="255" height="60" rx="30" fill="#3494E8"/>
<path d="M421.888 38.8182V20.6364H423.053V38.8182H421.888ZM425.531 26.2756C425.455 25.6032 425.143 25.0824 424.594 24.7131C424.045 24.339 423.353 24.152 422.52 24.152C421.923 24.152 421.407 24.2467 420.972 24.4361C420.536 24.6207 420.197 24.8764 419.956 25.2031C419.719 25.5251 419.601 25.892 419.601 26.304C419.601 26.6496 419.681 26.9479 419.842 27.1989C420.008 27.4498 420.223 27.6605 420.489 27.831C420.759 27.9967 421.047 28.1364 421.355 28.25C421.663 28.3589 421.959 28.4489 422.243 28.5199L423.663 28.8892C424.127 29.0028 424.603 29.1567 425.091 29.3509C425.579 29.545 426.031 29.8007 426.447 30.1179C426.864 30.4351 427.2 30.8281 427.456 31.2969C427.716 31.7656 427.847 32.3267 427.847 32.9801C427.847 33.804 427.634 34.5355 427.207 35.1747C426.786 35.8139 426.173 36.3182 425.368 36.6875C424.568 37.0568 423.599 37.2415 422.463 37.2415C421.374 37.2415 420.432 37.0687 419.636 36.723C418.841 36.3774 418.218 35.8873 417.768 35.2528C417.319 34.6136 417.07 33.8561 417.023 32.9801H419.224C419.267 33.5057 419.438 33.9437 419.736 34.294C420.039 34.6397 420.425 34.8977 420.893 35.0682C421.367 35.2339 421.885 35.3168 422.449 35.3168C423.069 35.3168 423.621 35.2197 424.104 35.0256C424.591 34.8267 424.975 34.5521 425.254 34.2017C425.534 33.8466 425.673 33.4323 425.673 32.9588C425.673 32.5279 425.55 32.1752 425.304 31.9006C425.063 31.6259 424.733 31.3987 424.317 31.2188C423.905 31.0388 423.438 30.8802 422.918 30.7429L421.199 30.2741C420.034 29.9569 419.111 29.4905 418.429 28.875C417.752 28.2595 417.413 27.4451 417.413 26.4318C417.413 25.5937 417.641 24.8622 418.095 24.2372C418.55 23.6122 419.165 23.1269 419.942 22.7812C420.718 22.4309 421.594 22.2557 422.57 22.2557C423.554 22.2557 424.423 22.4285 425.176 22.7741C425.934 23.1198 426.53 23.5956 426.966 24.2017C427.402 24.803 427.629 25.4943 427.648 26.2756H425.531ZM441.082 22.4545V37H438.88V24.6562H438.795L435.315 26.929V24.8267L438.944 22.4545H441.082ZM445.604 37.1349C445.216 37.1349 444.882 36.9976 444.603 36.723C444.323 36.4437 444.184 36.1075 444.184 35.7145C444.184 35.3262 444.323 34.9948 444.603 34.7202C444.882 34.4408 445.216 34.3011 445.604 34.3011C445.992 34.3011 446.326 34.4408 446.605 34.7202C446.885 34.9948 447.025 35.3262 447.025 35.7145C447.025 35.9749 446.958 36.214 446.826 36.4318C446.698 36.6449 446.527 36.8153 446.314 36.9432C446.101 37.071 445.864 37.1349 445.604 37.1349ZM454.377 37.1989C453.402 37.1989 452.531 37.0308 451.763 36.6946C451.001 36.3584 450.397 35.892 449.952 35.2955C449.512 34.6941 449.275 33.9981 449.242 33.2074H451.472C451.501 33.6383 451.645 34.0123 451.906 34.3295C452.171 34.642 452.516 34.8835 452.942 35.054C453.369 35.2244 453.842 35.3097 454.363 35.3097C454.936 35.3097 455.442 35.2102 455.883 35.0114C456.328 34.8125 456.676 34.5355 456.927 34.1804C457.178 33.8205 457.303 33.4062 457.303 32.9375C457.303 32.4498 457.178 32.0213 456.927 31.652C456.681 31.2779 456.318 30.9844 455.84 30.7713C455.367 30.5582 454.794 30.4517 454.121 30.4517H452.893V28.6619H454.121C454.661 28.6619 455.135 28.5649 455.542 28.3707C455.954 28.1766 456.276 27.9067 456.508 27.5611C456.74 27.2107 456.856 26.8011 456.856 26.3324C456.856 25.8826 456.754 25.492 456.55 25.1605C456.352 24.8243 456.067 24.5616 455.698 24.3722C455.334 24.1828 454.903 24.0881 454.406 24.0881C453.932 24.0881 453.489 24.1757 453.077 24.3509C452.67 24.5213 452.339 24.7675 452.083 25.0895C451.827 25.4067 451.69 25.7879 451.671 26.233H449.548C449.571 25.447 449.803 24.7557 450.244 24.1591C450.689 23.5625 451.276 23.0961 452.005 22.7599C452.734 22.4238 453.544 22.2557 454.434 22.2557C455.367 22.2557 456.172 22.438 456.849 22.8026C457.531 23.1624 458.056 23.643 458.425 24.2443C458.799 24.8456 458.984 25.5038 458.979 26.2188C458.984 27.0331 458.757 27.7244 458.298 28.2926C457.843 28.8608 457.237 29.242 456.479 29.4361V29.5497C457.445 29.6965 458.193 30.08 458.724 30.7003C459.259 31.3205 459.524 32.09 459.519 33.0085C459.524 33.8087 459.301 34.526 458.852 35.1605C458.406 35.795 457.798 36.2945 457.026 36.6591C456.254 37.0189 455.371 37.1989 454.377 37.1989ZM467.268 37.1989C466.292 37.1989 465.421 37.0308 464.654 36.6946C463.892 36.3584 463.288 35.892 462.843 35.2955C462.403 34.6941 462.166 33.9981 462.133 33.2074H464.363C464.391 33.6383 464.536 34.0123 464.796 34.3295C465.061 34.642 465.407 34.8835 465.833 35.054C466.259 35.2244 466.733 35.3097 467.254 35.3097C467.826 35.3097 468.333 35.2102 468.773 35.0114C469.219 34.8125 469.567 34.5355 469.817 34.1804C470.068 33.8205 470.194 33.4062 470.194 32.9375C470.194 32.4498 470.068 32.0213 469.817 31.652C469.571 31.2779 469.209 30.9844 468.731 30.7713C468.257 30.5582 467.684 30.4517 467.012 30.4517H465.783V28.6619H467.012C467.552 28.6619 468.025 28.5649 468.433 28.3707C468.844 28.1766 469.166 27.9067 469.398 27.5611C469.63 27.2107 469.746 26.8011 469.746 26.3324C469.746 25.8826 469.645 25.492 469.441 25.1605C469.242 24.8243 468.958 24.5616 468.589 24.3722C468.224 24.1828 467.793 24.0881 467.296 24.0881C466.823 24.0881 466.38 24.1757 465.968 24.3509C465.561 24.5213 465.229 24.7675 464.974 25.0895C464.718 25.4067 464.581 25.7879 464.562 26.233H462.438C462.462 25.447 462.694 24.7557 463.134 24.1591C463.579 23.5625 464.166 23.0961 464.896 22.7599C465.625 22.4238 466.434 22.2557 467.325 22.2557C468.257 22.2557 469.062 22.438 469.739 22.8026C470.421 23.1624 470.947 23.643 471.316 24.2443C471.69 24.8456 471.875 25.5038 471.87 26.2188C471.875 27.0331 471.647 27.7244 471.188 28.2926C470.734 28.8608 470.128 29.242 469.37 29.4361V29.5497C470.336 29.6965 471.084 30.08 471.614 30.7003C472.149 31.3205 472.415 32.09 472.41 33.0085C472.415 33.8087 472.192 34.526 471.742 35.1605C471.297 35.795 470.689 36.2945 469.917 36.6591C469.145 37.0189 468.262 37.1989 467.268 37.1989ZM481.815 37H479.485L484.72 22.4545H487.255L492.49 37H490.16L486.048 25.0966H485.934L481.815 37ZM482.206 31.304H489.762V33.1506H482.206V31.304ZM492.154 24.3438V22.4545H503.411V24.3438H498.873V37H496.685V24.3438H492.154ZM505.899 37V22.4545H508.093V28.7756H515.345V22.4545H517.547V37H515.345V30.6577H508.093V37H505.899ZM526.483 29.7273C526.483 27.947 526.717 26.3087 527.186 24.8125C527.655 23.3163 528.339 21.9361 529.239 20.6719H531.185C530.834 21.1406 530.508 21.7159 530.205 22.3977C529.902 23.0795 529.636 23.8277 529.409 24.642C529.182 25.4517 529.004 26.2921 528.876 27.1634C528.749 28.0298 528.685 28.8845 528.685 29.7273C528.685 30.8542 528.796 31.9953 529.018 33.1506C529.241 34.3059 529.542 35.3783 529.92 36.3679C530.299 37.3575 530.721 38.1648 531.185 38.7898H529.239C528.339 37.5256 527.655 36.1454 527.186 34.6491C526.717 33.1529 526.483 31.5123 526.483 29.7273ZM538.459 37.1989C537.484 37.1989 536.613 37.0308 535.846 36.6946C535.083 36.3584 534.48 35.892 534.034 35.2955C533.594 34.6941 533.357 33.9981 533.324 33.2074H535.554C535.583 33.6383 535.727 34.0123 535.988 34.3295C536.253 34.642 536.598 34.8835 537.025 35.054C537.451 35.2244 537.924 35.3097 538.445 35.3097C539.018 35.3097 539.525 35.2102 539.965 35.0114C540.41 34.8125 540.758 34.5355 541.009 34.1804C541.26 33.8205 541.385 33.4062 541.385 32.9375C541.385 32.4498 541.26 32.0213 541.009 31.652C540.763 31.2779 540.4 30.9844 539.922 30.7713C539.449 30.5582 538.876 30.4517 538.203 30.4517H536.975V28.6619H538.203C538.743 28.6619 539.217 28.5649 539.624 28.3707C540.036 28.1766 540.358 27.9067 540.59 27.5611C540.822 27.2107 540.938 26.8011 540.938 26.3324C540.938 25.8826 540.836 25.492 540.632 25.1605C540.434 24.8243 540.15 24.5616 539.78 24.3722C539.416 24.1828 538.985 24.0881 538.488 24.0881C538.014 24.0881 537.571 24.1757 537.159 24.3509C536.752 24.5213 536.421 24.7675 536.165 25.0895C535.909 25.4067 535.772 25.7879 535.753 26.233H533.63C533.653 25.447 533.885 24.7557 534.326 24.1591C534.771 23.5625 535.358 23.0961 536.087 22.7599C536.816 22.4238 537.626 22.2557 538.516 22.2557C539.449 22.2557 540.254 22.438 540.931 22.8026C541.613 23.1624 542.138 23.643 542.507 24.2443C542.882 24.8456 543.066 25.5038 543.061 26.2188C543.066 27.0331 542.839 27.7244 542.38 28.2926C541.925 28.8608 541.319 29.242 540.561 29.4361V29.5497C541.527 29.6965 542.275 30.08 542.806 30.7003C543.341 31.3205 543.606 32.09 543.601 33.0085C543.606 33.8087 543.383 34.526 542.934 35.1605C542.489 35.795 541.88 36.2945 541.108 36.6591C540.337 37.0189 539.453 37.1989 538.459 37.1989ZM551.087 37.1989C550.197 37.1989 549.397 37.0284 548.686 36.6875C547.981 36.3419 547.417 35.8684 546.996 35.267C546.575 34.6657 546.35 33.9792 546.321 33.2074H548.452C548.504 33.8324 548.781 34.3461 549.283 34.7486C549.785 35.151 550.386 35.3523 551.087 35.3523C551.646 35.3523 552.141 35.2244 552.571 34.9688C553.007 34.7083 553.348 34.3509 553.594 33.8963C553.845 33.4418 553.971 32.9233 553.971 32.3409C553.971 31.7491 553.843 31.2211 553.587 30.7571C553.331 30.2931 552.979 29.9285 552.529 29.6634C552.084 29.3982 551.572 29.2633 550.995 29.2585C550.554 29.2585 550.112 29.3343 549.667 29.4858C549.221 29.6373 548.862 29.8362 548.587 30.0824L546.577 29.7841L547.394 22.4545H555.391V24.3366H549.219L548.757 28.4062H548.843C549.127 28.1316 549.503 27.902 549.972 27.7173C550.445 27.5327 550.952 27.4403 551.492 27.4403C552.377 27.4403 553.166 27.651 553.857 28.0724C554.553 28.4938 555.1 29.0691 555.498 29.7983C555.9 30.5227 556.099 31.3561 556.094 32.2983C556.099 33.2405 555.886 34.081 555.455 34.8196C555.029 35.5582 554.437 36.1406 553.679 36.5668C552.926 36.9882 552.062 37.1989 551.087 37.1989ZM563.525 22.2557C564.174 22.2604 564.813 22.3788 565.442 22.6108C566.072 22.8428 566.64 23.2216 567.147 23.7472C567.658 24.2727 568.066 24.983 568.369 25.8778C568.676 26.768 568.833 27.8759 568.837 29.2017C568.837 30.4754 568.71 31.6094 568.454 32.6037C568.198 33.5933 567.831 34.429 567.353 35.1108C566.879 35.7926 566.304 36.3111 565.627 36.6662C564.95 37.0213 564.188 37.1989 563.34 37.1989C562.474 37.1989 561.704 37.0284 561.032 36.6875C560.36 36.3466 559.813 35.8755 559.391 35.2741C558.97 34.6681 558.707 33.9721 558.603 33.1861H560.769C560.911 33.8111 561.2 34.3177 561.636 34.706C562.076 35.0895 562.644 35.2812 563.34 35.2812C564.406 35.2812 565.237 34.8172 565.833 33.8892C566.43 32.9564 566.73 31.6544 566.735 29.983H566.621C566.375 30.3902 566.067 30.7405 565.698 31.0341C565.334 31.3277 564.924 31.5549 564.469 31.7159C564.015 31.8769 563.53 31.9574 563.013 31.9574C562.175 31.9574 561.413 31.7514 560.727 31.3395C560.04 30.9276 559.493 30.3617 559.086 29.642C558.679 28.9223 558.475 28.1009 558.475 27.1776C558.475 26.259 558.683 25.4257 559.1 24.6776C559.522 23.9295 560.109 23.3376 560.862 22.902C561.619 22.4616 562.507 22.2462 563.525 22.2557ZM563.532 24.1023C562.978 24.1023 562.478 24.2396 562.033 24.5142C561.593 24.7841 561.245 25.151 560.989 25.6151C560.734 26.0743 560.606 26.5857 560.606 27.1491C560.606 27.7126 560.729 28.224 560.975 28.6832C561.226 29.1378 561.567 29.5 561.998 29.7699C562.433 30.035 562.931 30.1676 563.489 30.1676C563.906 30.1676 564.294 30.0871 564.654 29.9261C565.014 29.7652 565.329 29.5426 565.599 29.2585C565.869 28.9697 566.079 28.643 566.231 28.2784C566.382 27.9138 566.458 27.5303 566.458 27.1278C566.458 26.5928 566.33 26.0956 566.075 25.6364C565.824 25.1771 565.478 24.8078 565.038 24.5284C564.597 24.2443 564.095 24.1023 563.532 24.1023ZM576.24 22.2557C576.888 22.2604 577.528 22.3788 578.157 22.6108C578.787 22.8428 579.355 23.2216 579.862 23.7472C580.373 24.2727 580.78 24.983 581.083 25.8778C581.391 26.768 581.547 27.8759 581.552 29.2017C581.552 30.4754 581.424 31.6094 581.169 32.6037C580.913 33.5933 580.546 34.429 580.068 35.1108C579.594 35.7926 579.019 36.3111 578.342 36.6662C577.665 37.0213 576.903 37.1989 576.055 37.1989C575.189 37.1989 574.419 37.0284 573.747 36.6875C573.074 36.3466 572.528 35.8755 572.106 35.2741C571.685 34.6681 571.422 33.9721 571.318 33.1861H573.484C573.626 33.8111 573.915 34.3177 574.35 34.706C574.791 35.0895 575.359 35.2812 576.055 35.2812C577.12 35.2812 577.951 34.8172 578.548 33.8892C579.145 32.9564 579.445 31.6544 579.45 29.983H579.336C579.09 30.3902 578.782 30.7405 578.413 31.0341C578.048 31.3277 577.639 31.5549 577.184 31.7159C576.73 31.8769 576.244 31.9574 575.728 31.9574C574.89 31.9574 574.128 31.7514 573.441 31.3395C572.755 30.9276 572.208 30.3617 571.801 29.642C571.394 28.9223 571.19 28.1009 571.19 27.1776C571.19 26.259 571.398 25.4257 571.815 24.6776C572.236 23.9295 572.824 23.3376 573.576 22.902C574.334 22.4616 575.222 22.2462 576.24 22.2557ZM576.247 24.1023C575.693 24.1023 575.193 24.2396 574.748 24.5142C574.308 24.7841 573.96 25.151 573.704 25.6151C573.449 26.0743 573.321 26.5857 573.321 27.1491C573.321 27.7126 573.444 28.224 573.69 28.6832C573.941 29.1378 574.282 29.5 574.713 29.7699C575.148 30.035 575.645 30.1676 576.204 30.1676C576.621 30.1676 577.009 30.0871 577.369 29.9261C577.729 29.7652 578.044 29.5426 578.314 29.2585C578.583 28.9697 578.794 28.643 578.946 28.2784C579.097 27.9138 579.173 27.5303 579.173 27.1278C579.173 26.5928 579.045 26.0956 578.789 25.6364C578.538 25.1771 578.193 24.8078 577.752 24.5284C577.312 24.2443 576.81 24.1023 576.247 24.1023ZM591.71 34.2727V33.5057C591.71 32.9564 591.824 32.4545 592.051 32C592.283 31.5407 592.619 31.1738 593.06 30.8991C593.505 30.6198 594.042 30.4801 594.672 30.4801C595.316 30.4801 595.856 30.6174 596.291 30.892C596.727 31.1667 597.056 31.5336 597.278 31.9929C597.506 32.4522 597.619 32.9564 597.619 33.5057V34.2727C597.619 34.822 597.506 35.3262 597.278 35.7855C597.051 36.2401 596.717 36.607 596.277 36.8864C595.841 37.161 595.306 37.2983 594.672 37.2983C594.033 37.2983 593.493 37.161 593.053 36.8864C592.612 36.607 592.278 36.2401 592.051 35.7855C591.824 35.3262 591.71 34.822 591.71 34.2727ZM593.365 33.5057V34.2727C593.365 34.6799 593.462 35.0492 593.656 35.3807C593.85 35.7121 594.189 35.8778 594.672 35.8778C595.15 35.8778 595.484 35.7121 595.673 35.3807C595.863 35.0492 595.957 34.6799 595.957 34.2727V33.5057C595.957 33.0985 595.865 32.7292 595.68 32.3977C595.5 32.0663 595.164 31.9006 594.672 31.9006C594.198 31.9006 593.862 32.0663 593.663 32.3977C593.464 32.7292 593.365 33.0985 593.365 33.5057ZM584.395 25.9489V25.1818C584.395 24.6326 584.509 24.1283 584.736 23.669C584.968 23.2098 585.304 22.8428 585.744 22.5682C586.189 22.2936 586.727 22.1562 587.357 22.1562C588 22.1562 588.54 22.2936 588.976 22.5682C589.411 22.8428 589.741 23.2098 589.963 23.669C590.186 24.1283 590.297 24.6326 590.297 25.1818V25.9489C590.297 26.4981 590.183 27.0024 589.956 27.4616C589.733 27.9162 589.402 28.2831 588.962 28.5625C588.526 28.8371 587.991 28.9744 587.357 28.9744C586.713 28.9744 586.17 28.8371 585.73 28.5625C585.295 28.2831 584.963 27.9162 584.736 27.4616C584.509 27.0024 584.395 26.4981 584.395 25.9489ZM586.057 25.1818V25.9489C586.057 26.3561 586.152 26.7254 586.341 27.0568C586.535 27.3883 586.874 27.554 587.357 27.554C587.83 27.554 588.161 27.3883 588.351 27.0568C588.545 26.7254 588.642 26.3561 588.642 25.9489V25.1818C588.642 24.7746 588.55 24.4053 588.365 24.0739C588.18 23.7424 587.844 23.5767 587.357 23.5767C586.883 23.5767 586.547 23.7424 586.348 24.0739C586.154 24.4053 586.057 24.7746 586.057 25.1818ZM585.07 37L595.07 22.4545H596.767L586.767 37H585.07ZM604.793 29.7273C604.793 31.5123 604.558 33.1529 604.089 34.6491C603.621 36.1454 602.937 37.5256 602.037 38.7898H600.091C600.441 38.321 600.768 37.7457 601.071 37.0639C601.374 36.3821 601.639 35.6364 601.866 34.8267C602.094 34.0123 602.271 33.1695 602.399 32.2983C602.527 31.4271 602.591 30.5701 602.591 29.7273C602.591 28.6051 602.48 27.4664 602.257 26.3111C602.035 25.1558 601.734 24.0833 601.355 23.0938C600.976 22.1042 600.555 21.2969 600.091 20.6719H602.037C602.937 21.9361 603.621 23.3163 604.089 24.8125C604.558 26.3087 604.793 27.947 604.793 29.7273Z" fill="white"/>
<path d="M125.17 260.193C124.273 260.189 123.506 259.953 122.869 259.483C122.233 259.013 121.746 258.33 121.409 257.432C121.072 256.534 120.903 255.453 120.903 254.188C120.903 252.926 121.072 251.848 121.409 250.955C121.75 250.061 122.239 249.379 122.875 248.909C123.515 248.439 124.28 248.205 125.17 248.205C126.061 248.205 126.824 248.441 127.46 248.915C128.097 249.384 128.583 250.066 128.92 250.96C129.261 251.85 129.432 252.926 129.432 254.188C129.432 255.456 129.263 256.54 128.926 257.438C128.589 258.331 128.102 259.015 127.466 259.489C126.83 259.958 126.064 260.193 125.17 260.193ZM125.17 258.676C125.958 258.676 126.574 258.292 127.017 257.523C127.464 256.754 127.688 255.642 127.688 254.188C127.688 253.222 127.585 252.405 127.381 251.739C127.18 251.068 126.89 250.561 126.511 250.216C126.136 249.867 125.689 249.693 125.17 249.693C124.386 249.693 123.771 250.08 123.324 250.852C122.877 251.625 122.652 252.737 122.648 254.188C122.648 255.157 122.748 255.977 122.949 256.648C123.153 257.314 123.443 257.82 123.818 258.165C124.193 258.506 124.644 258.676 125.17 258.676ZM132.168 260.108C131.857 260.108 131.59 259.998 131.366 259.778C131.143 259.555 131.031 259.286 131.031 258.972C131.031 258.661 131.143 258.396 131.366 258.176C131.59 257.953 131.857 257.841 132.168 257.841C132.478 257.841 132.745 257.953 132.969 258.176C133.192 258.396 133.304 258.661 133.304 258.972C133.304 259.18 133.251 259.371 133.145 259.545C133.043 259.716 132.906 259.852 132.736 259.955C132.565 260.057 132.376 260.108 132.168 260.108ZM139.186 260.193C138.288 260.189 137.521 259.953 136.885 259.483C136.249 259.013 135.762 258.33 135.425 257.432C135.088 256.534 134.919 255.453 134.919 254.188C134.919 252.926 135.088 251.848 135.425 250.955C135.766 250.061 136.254 249.379 136.891 248.909C137.531 248.439 138.296 248.205 139.186 248.205C140.076 248.205 140.839 248.441 141.476 248.915C142.112 249.384 142.599 250.066 142.936 250.96C143.277 251.85 143.447 252.926 143.447 254.188C143.447 255.456 143.279 256.54 142.942 257.438C142.605 258.331 142.118 259.015 141.482 259.489C140.845 259.958 140.08 260.193 139.186 260.193ZM139.186 258.676C139.974 258.676 140.589 258.292 141.033 257.523C141.48 256.754 141.703 255.642 141.703 254.188C141.703 253.222 141.601 252.405 141.396 251.739C141.196 251.068 140.906 250.561 140.527 250.216C140.152 249.867 139.705 249.693 139.186 249.693C138.402 249.693 137.786 250.08 137.339 250.852C136.893 251.625 136.667 252.737 136.663 254.188C136.663 255.157 136.764 255.977 136.964 256.648C137.169 257.314 137.459 257.82 137.834 258.165C138.209 258.506 138.66 258.676 139.186 258.676ZM149.514 260.159C148.734 260.159 148.037 260.025 147.423 259.756C146.813 259.487 146.33 259.114 145.974 258.636C145.622 258.155 145.433 257.598 145.406 256.966H147.19C147.213 257.311 147.329 257.61 147.537 257.864C147.749 258.114 148.026 258.307 148.366 258.443C148.707 258.58 149.086 258.648 149.503 258.648C149.961 258.648 150.366 258.568 150.719 258.409C151.075 258.25 151.353 258.028 151.554 257.744C151.755 257.456 151.855 257.125 151.855 256.75C151.855 256.36 151.755 256.017 151.554 255.722C151.357 255.422 151.067 255.187 150.685 255.017C150.306 254.847 149.848 254.761 149.31 254.761H148.327V253.33H149.31C149.741 253.33 150.12 253.252 150.446 253.097C150.776 252.941 151.033 252.725 151.219 252.449C151.404 252.169 151.497 251.841 151.497 251.466C151.497 251.106 151.416 250.794 151.253 250.528C151.094 250.259 150.866 250.049 150.571 249.898C150.279 249.746 149.935 249.67 149.537 249.67C149.158 249.67 148.804 249.741 148.474 249.881C148.149 250.017 147.884 250.214 147.679 250.472C147.474 250.725 147.365 251.03 147.349 251.386H145.651C145.67 250.758 145.855 250.205 146.207 249.727C146.563 249.25 147.033 248.877 147.616 248.608C148.2 248.339 148.848 248.205 149.56 248.205C150.306 248.205 150.95 248.35 151.491 248.642C152.037 248.93 152.457 249.314 152.753 249.795C153.052 250.277 153.2 250.803 153.196 251.375C153.2 252.027 153.018 252.58 152.651 253.034C152.287 253.489 151.802 253.794 151.196 253.949V254.04C151.969 254.157 152.567 254.464 152.991 254.96C153.42 255.456 153.632 256.072 153.628 256.807C153.632 257.447 153.454 258.021 153.094 258.528C152.738 259.036 152.251 259.436 151.634 259.727C151.016 260.015 150.31 260.159 149.514 260.159ZM156.168 260L161.247 249.955V249.869H155.372V248.364H163.065V249.92L158.003 260H156.168ZM171.19 248.364V260H169.435V248.364H171.19ZM177.514 260H173.747V248.364H177.634C178.774 248.364 179.753 248.597 180.571 249.062C181.389 249.525 182.016 250.189 182.452 251.057C182.891 251.92 183.111 252.956 183.111 254.165C183.111 255.377 182.889 256.419 182.446 257.29C182.007 258.161 181.37 258.831 180.537 259.301C179.704 259.767 178.696 260 177.514 260ZM175.503 258.466H177.418C178.304 258.466 179.041 258.299 179.628 257.966C180.215 257.629 180.654 257.142 180.946 256.506C181.238 255.866 181.384 255.085 181.384 254.165C181.384 253.252 181.238 252.477 180.946 251.841C180.658 251.205 180.228 250.722 179.656 250.392C179.084 250.062 178.374 249.898 177.526 249.898H175.503V258.466ZM195.402 254.182C195.402 255.424 195.175 256.492 194.72 257.386C194.266 258.277 193.643 258.962 192.851 259.443C192.063 259.92 191.167 260.159 190.163 260.159C189.156 260.159 188.256 259.92 187.464 259.443C186.677 258.962 186.055 258.275 185.601 257.381C185.146 256.487 184.919 255.42 184.919 254.182C184.919 252.939 185.146 251.873 185.601 250.983C186.055 250.089 186.677 249.403 187.464 248.926C188.256 248.445 189.156 248.205 190.163 248.205C191.167 248.205 192.063 248.445 192.851 248.926C193.643 249.403 194.266 250.089 194.72 250.983C195.175 251.873 195.402 252.939 195.402 254.182ZM193.663 254.182C193.663 253.235 193.51 252.437 193.203 251.79C192.9 251.138 192.483 250.646 191.953 250.312C191.427 249.975 190.83 249.807 190.163 249.807C189.493 249.807 188.894 249.975 188.368 250.312C187.841 250.646 187.425 251.138 187.118 251.79C186.815 252.437 186.663 253.235 186.663 254.182C186.663 255.129 186.815 255.928 187.118 256.58C187.425 257.227 187.841 257.72 188.368 258.057C188.894 258.39 189.493 258.557 190.163 258.557C190.83 258.557 191.427 258.39 191.953 258.057C192.483 257.72 192.9 257.227 193.203 256.58C193.51 255.928 193.663 255.129 193.663 254.182ZM201.825 260V248.364H205.973C206.878 248.364 207.628 248.528 208.223 248.858C208.818 249.187 209.263 249.638 209.558 250.21C209.854 250.778 210.001 251.419 210.001 252.131C210.001 252.847 209.852 253.491 209.553 254.062C209.257 254.631 208.81 255.081 208.212 255.415C207.617 255.744 206.869 255.909 205.967 255.909H203.115V254.42H205.808C206.38 254.42 206.844 254.322 207.2 254.125C207.556 253.924 207.818 253.652 207.984 253.307C208.151 252.962 208.234 252.57 208.234 252.131C208.234 251.691 208.151 251.301 207.984 250.96C207.818 250.619 207.554 250.352 207.195 250.159C206.839 249.966 206.369 249.869 205.786 249.869H203.581V260H201.825ZM211.923 260V251.273H213.565V252.659H213.656C213.815 252.189 214.096 251.82 214.497 251.551C214.902 251.278 215.361 251.142 215.872 251.142C215.978 251.142 216.103 251.146 216.247 251.153C216.395 251.161 216.51 251.17 216.594 251.182V252.807C216.526 252.788 216.404 252.767 216.23 252.744C216.056 252.718 215.882 252.705 215.707 252.705C215.306 252.705 214.948 252.79 214.634 252.96C214.323 253.127 214.077 253.36 213.895 253.659C213.713 253.955 213.622 254.292 213.622 254.67V260H211.923ZM218.064 260V251.273H219.763V260H218.064ZM218.922 249.926C218.626 249.926 218.373 249.828 218.161 249.631C217.952 249.43 217.848 249.191 217.848 248.915C217.848 248.634 217.952 248.396 218.161 248.199C218.373 247.998 218.626 247.898 218.922 247.898C219.217 247.898 219.469 247.998 219.678 248.199C219.89 248.396 219.996 248.634 219.996 248.915C219.996 249.191 219.89 249.43 219.678 249.631C219.469 249.828 219.217 249.926 218.922 249.926ZM225.724 260.176C224.88 260.176 224.152 259.985 223.543 259.602C222.937 259.216 222.471 258.684 222.145 258.006C221.819 257.328 221.656 256.551 221.656 255.676C221.656 254.79 221.823 254.008 222.156 253.33C222.49 252.648 222.959 252.116 223.565 251.733C224.171 251.35 224.885 251.159 225.707 251.159C226.37 251.159 226.961 251.282 227.48 251.528C227.999 251.771 228.418 252.112 228.736 252.551C229.058 252.991 229.249 253.504 229.31 254.091H227.656C227.565 253.682 227.357 253.33 227.031 253.034C226.709 252.739 226.277 252.591 225.736 252.591C225.262 252.591 224.848 252.716 224.491 252.966C224.139 253.212 223.865 253.564 223.668 254.023C223.471 254.477 223.372 255.015 223.372 255.636C223.372 256.273 223.469 256.822 223.662 257.284C223.855 257.746 224.128 258.104 224.48 258.358C224.836 258.612 225.255 258.739 225.736 258.739C226.058 258.739 226.349 258.68 226.611 258.562C226.876 258.441 227.098 258.269 227.276 258.045C227.457 257.822 227.584 257.553 227.656 257.239H229.31C229.249 257.803 229.065 258.307 228.759 258.75C228.452 259.193 228.041 259.542 227.526 259.795C227.014 260.049 226.414 260.176 225.724 260.176ZM234.888 260.176C234.028 260.176 233.287 259.992 232.666 259.625C232.049 259.254 231.571 258.733 231.234 258.062C230.901 257.388 230.734 256.598 230.734 255.693C230.734 254.799 230.901 254.011 231.234 253.33C231.571 252.648 232.041 252.116 232.643 251.733C233.25 251.35 233.958 251.159 234.768 251.159C235.261 251.159 235.738 251.241 236.2 251.403C236.662 251.566 237.077 251.822 237.445 252.17C237.812 252.519 238.102 252.972 238.314 253.528C238.526 254.081 238.632 254.754 238.632 255.545V256.148H231.695V254.875H236.967C236.967 254.428 236.876 254.032 236.695 253.688C236.513 253.339 236.257 253.064 235.928 252.864C235.602 252.663 235.219 252.562 234.78 252.562C234.303 252.562 233.886 252.68 233.53 252.915C233.178 253.146 232.905 253.449 232.712 253.824C232.522 254.195 232.428 254.598 232.428 255.034V256.028C232.428 256.612 232.53 257.108 232.734 257.517C232.943 257.926 233.232 258.239 233.604 258.455C233.975 258.667 234.409 258.773 234.905 258.773C235.227 258.773 235.52 258.727 235.786 258.636C236.051 258.542 236.28 258.402 236.473 258.216C236.666 258.03 236.814 257.801 236.916 257.528L238.524 257.818C238.395 258.292 238.164 258.706 237.831 259.062C237.501 259.415 237.087 259.689 236.587 259.886C236.09 260.08 235.524 260.176 234.888 260.176Z" fill="white"/>
<defs>
<linearGradient id="paint0_linear_427_2313" x1="1300.58" y1="241.444" x2="157.428" y2="360.412" gradientUnits="userSpaceOnUse">
<stop stop-color="#04F66F" stop-opacity="0"/>
<stop offset="0.182923" stop-color="#04F66F" stop-opacity="0.342541"/>
<stop offset="0.71923" stop-color="#04F66F"/>
<stop offset="0.941172" stop-color="#F60404" stop-opacity="0.290623"/>
<stop offset="1" stop-color="#F60404" stop-opacity="0"/>
</linearGradient>
<linearGradient id="paint1_linear_427_2313" x1="1300.58" y1="212.444" x2="157.428" y2="331.412" gradientUnits="userSpaceOnUse">
<stop stop-color="#04F66F" stop-opacity="0"/>
<stop offset="0.182923" stop-color="#04F66F" stop-opacity="0.342541"/>
<stop offset="0.53402" stop-color="#04F66F"/>
<stop offset="0.864575" stop-color="#F60404" stop-opacity="0.290623"/>
<stop offset="1" stop-color="#F60404" stop-opacity="0"/>
</linearGradient>
<linearGradient id="paint2_linear_427_2313" x1="1300.58" y1="177.444" x2="157.428" y2="296.412" gradientUnits="userSpaceOnUse">
<stop stop-color="#04F66F" stop-opacity="0"/>
<stop offset="0.182923" stop-color="#04F66F" stop-opacity="0.342541"/>
<stop offset="0.53402" stop-color="#04F66F"/>
<stop offset="0.864575" stop-color="#F60404" stop-opacity="0.290623"/>
<stop offset="1" stop-color="#F60404" stop-opacity="0"/>
</linearGradient>
</defs>
</svg>
