<svg width="1415" height="380" viewBox="0 0 1415 380" fill="none" xmlns="http://www.w3.org/2000/svg">
<path d="M1 292.343L24.7244 295.776C25.0584 295.824 25.3991 295.787 25.715 295.669L31.8499 293.361C33.1577 292.869 34.5541 293.835 34.5541 295.232V302.315C34.5541 302.674 34.6504 303.025 34.8331 303.334L40.4976 312.902C40.8577 313.51 41.5119 313.883 42.2187 313.883H46.535C47.6395 313.883 48.535 314.779 48.535 315.883V323.785C48.535 324.48 48.8959 325.125 49.4882 325.489L61.1022 332.623C61.4171 332.816 61.7794 332.918 62.1489 332.918H70.9044H96.6008C96.8656 332.918 97.1278 332.971 97.3721 333.073L105.02 336.27C105.265 336.372 105.527 336.425 105.792 336.425H147.006C147.223 336.425 147.438 336.46 147.643 336.529L162.246 341.434C166.596 342.436 176.413 344.54 180.887 344.941C185.274 345.334 195.993 347.685 201.095 348.878C201.295 348.925 201.482 349.002 201.658 349.107L217.195 358.385C217.799 358.746 218.17 359.398 218.17 360.102V368.5C218.17 369.383 218.748 370.161 219.593 370.415L241.189 376.915C241.376 376.971 241.57 377 241.765 377H248.792C249.896 377 250.792 376.105 250.792 375V356.092C250.792 354.069 253.451 353.325 254.501 355.053L265.184 372.637C265.512 373.176 266.074 373.529 266.702 373.59L301.609 376.957C301.903 376.985 302.199 376.948 302.476 376.849L321.301 370.104C321.517 370.027 321.746 369.987 321.975 369.987H357.046H383.008C384.112 369.987 385.008 369.092 385.008 367.987V350.546C385.008 349.612 385.655 348.802 386.566 348.595L402.504 344.989C402.646 344.957 402.78 344.913 402.908 344.845C408.524 341.879 413.997 324.728 416.365 315.251C416.57 314.428 417.279 313.818 418.02 313.405C419.901 312.358 422.759 309.431 425.086 302.863C428.058 294.477 432.511 266.827 434.387 253.91C434.401 253.815 434.407 253.724 434.407 253.628V224.217V181.942C434.407 179.989 436.918 179.194 438.042 180.791L447.091 193.643C447.328 193.981 447.456 194.383 447.456 194.795V210.503C447.456 210.95 447.606 211.384 447.881 211.736L451.338 216.148C452.51 217.644 454.912 216.815 454.912 214.915V204.681V175.627C454.912 170.117 454.912 158.495 454.912 156.091C454.912 155.369 454.912 153.242 454.912 150.384C454.912 147.936 458.467 147.626 458.883 150.038L463.272 175.458C463.291 175.571 463.301 175.684 463.301 175.798V204.142C463.301 204.495 463.394 204.842 463.572 205.147L468.892 214.297C469.919 216.064 472.621 215.335 472.621 213.292V203.733C472.621 201.99 474.695 201.081 475.977 202.262L482.315 208.102C483.597 209.282 485.67 208.373 485.67 206.631V194.161V176.247C485.67 175.843 485.792 175.449 486.021 175.116L491.599 166.979C491.972 166.435 492.589 166.109 493.248 166.109H499.286C500.075 166.109 500.79 165.645 501.112 164.925L506.002 153.975C506.116 153.719 506.175 153.441 506.175 153.16V144.57M506.175 135.553V144.57M506.175 144.57L510.91 117.306C511.287 115.133 514.388 115.081 514.838 117.239L522.91 155.889C522.938 156.023 522.953 156.16 522.953 156.298V175.627V175.627C522.953 177.6 525.787 177.912 526.216 175.986L533.167 144.74C533.192 144.627 533.227 144.516 533.272 144.408L538 133L538.676 131.357C539.51 129.33 542.526 129.926 542.526 132.118V166.109V184.143V211.193V223.175C542.526 223.828 542.845 224.44 543.38 224.814L551.627 230.576C551.773 230.678 551.904 230.798 552.018 230.934L563.499 244.7C563.799 245.059 563.963 245.512 563.963 245.981V253.772V266.376C563.963 267.227 564.502 267.985 565.306 268.265L578.465 272.841C579.269 273.121 579.808 273.879 579.808 274.73V282.477C579.808 283.293 580.304 284.027 581.06 284.332L588.978 287.524C590.063 287.961 591.29 287.378 591.636 286.261L599.292 261.575C599.351 261.383 599.381 261.186 599.381 260.985C599.381 255.946 599.381 247.879 599.381 253.772C599.381 259.604 608.741 272.511 613.838 278.764C614.132 279.124 614.294 279.574 614.294 280.039V286.61C614.294 287.602 615.02 288.443 616.001 288.589L640.176 292.173C640.886 292.278 641.598 291.995 642.041 291.432L651.148 279.863C651.426 279.511 651.577 279.076 651.577 278.627C651.577 274.788 651.577 266.932 651.577 261.286C651.577 253.772 648.78 241.75 651.577 237.742C654.373 233.735 651.577 230.228 651.577 220.711C651.577 213.096 651.577 203.178 651.577 199.171V199.171C651.577 197.613 653.84 197.421 654.102 198.957L661.874 244.558C662.183 246.373 664.574 246.841 665.545 245.276L676.426 227.732C677.308 226.31 679.441 226.535 680.008 228.108L684.15 239.611C684.182 239.701 684.221 239.788 684.266 239.872L693.285 256.838C693.439 257.127 693.519 257.449 693.519 257.777V266.713C693.519 267.39 693.861 268.02 694.428 268.389L710.989 279.164C711.148 279.267 711.32 279.347 711.501 279.402L725.858 283.742C726.046 283.799 726.241 283.827 726.437 283.827H734.555C735.131 283.827 735.68 284.076 736.059 284.51L742.321 291.661C742.7 292.094 743.249 292.343 743.825 292.343H750.746C751.113 292.343 751.473 292.242 751.786 292.051L765.288 283.827L778.908 273.579C779.145 273.401 779.34 273.171 779.478 272.908L787.446 257.681C787.585 257.417 787.657 257.122 787.657 256.823V256.823C787.657 254.719 790.609 254.247 791.266 256.246L798.504 278.292C798.715 278.933 799.234 279.425 799.886 279.6L815.067 283.679C815.428 283.776 815.808 283.77 816.165 283.662L829.11 279.749C829.954 279.494 830.532 278.716 830.532 277.834V274.637C830.532 272.638 833.14 271.875 834.217 273.559L840.567 283.488C840.711 283.712 840.897 283.905 841.115 284.056L847.309 288.336L861.094 295.744C861.224 295.814 861.361 295.87 861.504 295.909L886.069 302.755C886.324 302.826 886.562 302.947 886.77 303.111L899.674 313.283C900.155 313.662 900.436 314.241 900.436 314.853V319.979C900.436 321.774 902.618 322.66 903.87 321.373L920.16 304.624C921.044 303.715 922.54 303.848 923.25 304.898L928.642 312.866C929.064 313.49 929.801 313.824 930.548 313.73L971.386 308.593C972.386 308.467 973.137 307.617 973.137 306.609V298.285C973.137 298.001 973.197 297.719 973.314 297.46L980.662 281.227C981.132 280.188 982.375 279.752 983.391 280.269L999.002 288.217C999.156 288.296 999.299 288.394 999.429 288.51L1007.05 295.339C1007.42 295.668 1007.89 295.85 1008.39 295.85H1016.01L1035.42 297.837C1035.53 297.848 1035.64 297.867 1035.74 297.895L1054.23 302.863L1068.8 308.249C1069.02 308.331 1069.26 308.373 1069.5 308.373H1082.05C1083.16 308.373 1084.05 307.477 1084.05 306.373V305.734C1084.05 304.342 1085.44 303.375 1086.74 303.858L1097.88 307.972C1098.55 308.22 1099.02 308.819 1099.3 309.476C1100.13 311.382 1102.43 313.883 1107.35 313.883C1113.32 313.883 1145.26 310.21 1160.48 308.373H1163.55C1165.81 308.373 1172.33 313.326 1174.57 313.572C1176.36 313.769 1178.77 313.883 1181.92 313.883C1198.58 313.883 1214.39 313.883 1221.5 313.883C1222.36 313.883 1223.11 314.429 1223.41 315.231C1224.89 319.101 1227.73 324.904 1230.38 324.904C1233.15 324.904 1238.26 331.496 1240.97 335.52C1241.35 336.082 1241.98 336.425 1242.66 336.425H1263.94L1307.75 341.434L1358.86 348.927C1358.96 348.941 1359.06 348.948 1359.15 348.948H1367.4H1389.23C1389.58 348.948 1389.93 348.856 1390.23 348.681L1402.06 341.872C1402.54 341.593 1403.12 341.529 1403.65 341.696L1414 344.941" stroke="url(#paint0_linear_427_2304)" stroke-width="6"/>
<path d="M1 268.343L24.7244 271.776C25.0584 271.824 25.3991 271.787 25.715 271.669L31.8499 269.361C33.1577 268.869 34.5541 269.835 34.5541 271.232V278.315C34.5541 278.674 34.6504 279.025 34.8331 279.334L40.4976 288.902C40.8577 289.51 41.5119 289.883 42.2187 289.883H46.535C47.6395 289.883 48.535 290.779 48.535 291.883V299.785C48.535 300.48 48.8959 301.125 49.4882 301.489L61.1022 308.623C61.4171 308.816 61.7794 308.918 62.1489 308.918H70.9044H96.6008C96.8656 308.918 97.1278 308.971 97.3721 309.073L105.02 312.27C105.265 312.372 105.527 312.425 105.792 312.425H147.006C147.223 312.425 147.438 312.46 147.643 312.529L162.246 317.434C166.596 318.436 176.413 320.54 180.887 320.941C185.274 321.334 195.993 323.685 201.095 324.878C201.295 324.925 201.482 325.002 201.658 325.107L217.195 334.385C217.799 334.746 218.17 335.398 218.17 336.102V344.5C218.17 345.383 218.748 346.161 219.593 346.415L241.189 352.915C241.376 352.971 241.57 353 241.765 353H248.792C249.896 353 250.792 352.105 250.792 351V332.092C250.792 330.069 253.451 329.325 254.501 331.053L265.184 348.637C265.512 349.176 266.074 349.529 266.702 349.59L301.609 352.957C301.903 352.985 302.199 352.948 302.476 352.849L321.301 346.104C321.517 346.027 321.746 345.987 321.975 345.987H357.046H383.008C384.112 345.987 385.008 345.092 385.008 343.987V326.546C385.008 325.612 385.655 324.802 386.566 324.595L402.504 320.989C402.646 320.957 402.78 320.913 402.908 320.845C408.524 317.879 413.997 300.728 416.365 291.251C416.57 290.428 417.279 289.818 418.02 289.405C419.901 288.358 422.759 285.431 425.086 278.863C428.058 270.477 432.511 242.827 434.387 229.91C434.401 229.815 434.407 229.724 434.407 229.628V200.217V157.942C434.407 155.989 436.918 155.194 438.042 156.791L447.091 169.643C447.328 169.981 447.456 170.383 447.456 170.795V186.503C447.456 186.95 447.606 187.384 447.881 187.736L451.338 192.148C452.51 193.644 454.912 192.815 454.912 190.915V180.681V151.627C454.912 146.117 454.912 134.495 454.912 132.091C454.912 131.369 454.912 129.242 454.912 126.384C454.912 123.936 458.467 123.626 458.883 126.038L463.272 151.458C463.291 151.571 463.301 151.684 463.301 151.798V180.142C463.301 180.495 463.394 180.842 463.572 181.147L468.892 190.297C469.919 192.064 472.621 191.335 472.621 189.292V179.733C472.621 177.99 474.695 177.081 475.977 178.262L482.315 184.102C483.597 185.282 485.67 184.373 485.67 182.631V170.161V152.247C485.67 151.843 485.792 151.449 486.021 151.116L491.599 142.979C491.972 142.435 492.589 142.109 493.248 142.109H499.286C500.075 142.109 500.79 141.645 501.112 140.925L506.002 129.975C506.116 129.719 506.175 129.441 506.175 129.16V120.57M506.175 111.553V120.57M506.175 120.57L510.91 93.3061C511.287 91.1335 514.388 91.0808 514.838 93.2394L522.91 131.889C522.938 132.023 522.953 132.16 522.953 132.298V151.627V151.627C522.953 153.6 525.787 153.912 526.216 151.986L533.167 120.74C533.192 120.627 533.227 120.516 533.272 120.408L538 109L538.676 107.357C539.51 105.33 542.526 105.926 542.526 108.118V142.109V160.143V187.193V199.175C542.526 199.828 542.845 200.44 543.38 200.814L551.627 206.576C551.773 206.678 551.904 206.798 552.018 206.934L563.499 220.7C563.799 221.059 563.963 221.512 563.963 221.981V229.772V242.376C563.963 243.227 564.502 243.985 565.306 244.265L578.465 248.841C579.269 249.121 579.808 249.879 579.808 250.73V258.477C579.808 259.293 580.304 260.027 581.06 260.332L588.978 263.524C590.063 263.961 591.29 263.378 591.636 262.261L599.292 237.575C599.351 237.383 599.381 237.186 599.381 236.985C599.381 231.946 599.381 223.879 599.381 229.772C599.381 235.604 608.741 248.511 613.838 254.764C614.132 255.124 614.294 255.574 614.294 256.039V262.61C614.294 263.602 615.02 264.443 616.001 264.589L640.176 268.173C640.886 268.278 641.598 267.995 642.041 267.432L651.148 255.863C651.426 255.511 651.577 255.076 651.577 254.627C651.577 250.788 651.577 242.932 651.577 237.286C651.577 229.772 648.78 217.75 651.577 213.742C654.373 209.735 651.577 206.228 651.577 196.711C651.577 189.096 651.577 179.178 651.577 175.171V175.171C651.577 173.613 653.84 173.421 654.102 174.957L661.874 220.558C662.183 222.373 664.574 222.841 665.545 221.276L676.426 203.732C677.308 202.31 679.441 202.535 680.008 204.108L684.15 215.611C684.182 215.701 684.221 215.788 684.266 215.872L693.285 232.838C693.439 233.127 693.519 233.449 693.519 233.777V242.713C693.519 243.39 693.861 244.02 694.428 244.389L710.989 255.164C711.148 255.267 711.32 255.347 711.501 255.402L725.858 259.742C726.046 259.799 726.241 259.827 726.437 259.827H734.555C735.131 259.827 735.68 260.076 736.059 260.51L742.321 267.661C742.7 268.094 743.249 268.343 743.825 268.343H750.746C751.113 268.343 751.473 268.242 751.786 268.051L765.288 259.827L778.908 249.579C779.145 249.401 779.34 249.171 779.478 248.908L787.446 233.681C787.585 233.417 787.657 233.122 787.657 232.823V232.823C787.657 230.719 790.609 230.247 791.266 232.246L798.504 254.292C798.715 254.933 799.234 255.425 799.886 255.6L815.067 259.679C815.428 259.776 815.808 259.77 816.165 259.662L829.11 255.749C829.954 255.494 830.532 254.716 830.532 253.834V250.637C830.532 248.638 833.14 247.875 834.217 249.559L840.567 259.488C840.711 259.712 840.897 259.905 841.115 260.056L847.309 264.336L861.094 271.744C861.224 271.814 861.361 271.87 861.504 271.909L886.069 278.755C886.324 278.826 886.562 278.947 886.77 279.111L899.674 289.283C900.155 289.662 900.436 290.241 900.436 290.853V295.979C900.436 297.774 902.618 298.66 903.87 297.373L920.16 280.624C921.044 279.715 922.54 279.848 923.25 280.898L928.642 288.866C929.064 289.49 929.801 289.824 930.548 289.73L971.386 284.593C972.386 284.467 973.137 283.617 973.137 282.609V274.285C973.137 274.001 973.197 273.719 973.314 273.46L980.662 257.227C981.132 256.188 982.375 255.752 983.391 256.269L999.002 264.217C999.156 264.296 999.299 264.394 999.429 264.51L1007.05 271.339C1007.42 271.668 1007.89 271.85 1008.39 271.85H1016.01L1035.42 273.837C1035.53 273.848 1035.64 273.867 1035.74 273.895L1054.23 278.863L1068.8 284.249C1069.02 284.331 1069.26 284.373 1069.5 284.373H1082.05C1083.16 284.373 1084.05 283.477 1084.05 282.373V281.734C1084.05 280.342 1085.44 279.375 1086.74 279.858L1097.88 283.972C1098.55 284.22 1099.02 284.819 1099.3 285.476C1100.13 287.382 1102.43 289.883 1107.35 289.883C1113.32 289.883 1145.26 286.21 1160.48 284.373H1163.55C1165.81 284.373 1172.33 289.326 1174.57 289.572C1176.36 289.769 1178.77 289.883 1181.92 289.883C1198.58 289.883 1214.39 289.883 1221.5 289.883C1222.36 289.883 1223.11 290.429 1223.41 291.231C1224.89 295.101 1227.73 300.904 1230.38 300.904C1233.15 300.904 1238.26 307.496 1240.97 311.52C1241.35 312.082 1241.98 312.425 1242.66 312.425H1263.94L1307.75 317.434L1358.86 324.927C1358.96 324.941 1359.06 324.948 1359.15 324.948H1367.4H1389.23C1389.58 324.948 1389.93 324.856 1390.23 324.681L1402.06 317.872C1402.54 317.593 1403.12 317.529 1403.65 317.696L1414 320.941" stroke="url(#paint1_linear_427_2304)" stroke-opacity="0.2" stroke-width="6"/>
<path d="M1 225.343L24.7244 228.776C25.0584 228.824 25.3991 228.787 25.715 228.669L31.8499 226.361C33.1577 225.869 34.5541 226.835 34.5541 228.232V235.315C34.5541 235.674 34.6504 236.025 34.8331 236.334L40.4976 245.902C40.8577 246.51 41.5119 246.883 42.2187 246.883H46.535C47.6395 246.883 48.535 247.779 48.535 248.883V256.785C48.535 257.48 48.8959 258.125 49.4882 258.489L61.1022 265.623C61.4171 265.816 61.7794 265.918 62.1489 265.918H70.9044H96.6008C96.8656 265.918 97.1278 265.971 97.3721 266.073L105.02 269.27C105.265 269.372 105.527 269.425 105.792 269.425H147.006C147.223 269.425 147.438 269.46 147.643 269.529L162.246 274.434C166.596 275.436 176.413 277.54 180.887 277.941C185.274 278.334 195.993 280.685 201.095 281.878C201.295 281.925 201.482 282.002 201.658 282.107L217.195 291.385C217.799 291.746 218.17 292.398 218.17 293.102V301.5C218.17 302.383 218.748 303.161 219.593 303.415L241.189 309.915C241.376 309.971 241.57 310 241.765 310H248.792C249.896 310 250.792 309.105 250.792 308V289.092C250.792 287.069 253.451 286.325 254.501 288.053L265.184 305.637C265.512 306.176 266.074 306.529 266.702 306.59L301.609 309.957C301.903 309.985 302.199 309.948 302.476 309.849L321.301 303.104C321.517 303.027 321.746 302.987 321.975 302.987H357.046H383.008C384.112 302.987 385.008 302.092 385.008 300.987V283.546C385.008 282.612 385.655 281.802 386.566 281.595L402.504 277.989C402.646 277.957 402.78 277.913 402.908 277.845C408.524 274.879 413.997 257.728 416.365 248.251C416.57 247.428 417.279 246.818 418.02 246.405C419.901 245.358 422.759 242.431 425.086 235.863C428.058 227.477 432.511 199.827 434.387 186.91C434.401 186.815 434.407 186.724 434.407 186.628V157.217V114.942C434.407 112.989 436.918 112.194 438.042 113.791L447.091 126.643C447.328 126.981 447.456 127.383 447.456 127.795V143.503C447.456 143.95 447.606 144.384 447.881 144.736L451.338 149.148C452.51 150.644 454.912 149.815 454.912 147.915V137.681V108.627C454.912 103.117 454.912 91.4954 454.912 89.0909C454.912 88.3686 454.912 86.2417 454.912 83.3839C454.912 80.9359 458.467 80.6257 458.883 83.038L463.272 108.458C463.291 108.571 463.301 108.684 463.301 108.798V137.142C463.301 137.495 463.394 137.842 463.572 138.147L468.892 147.297C469.919 149.064 472.621 148.335 472.621 146.292V136.733C472.621 134.99 474.695 134.081 475.977 135.262L482.315 141.102C483.597 142.282 485.67 141.373 485.67 139.631V127.161V109.247C485.67 108.843 485.792 108.449 486.021 108.116L491.599 99.9786C491.972 99.4346 492.589 99.1095 493.248 99.1095H499.286C500.075 99.1095 500.79 98.6455 501.112 97.925L506.002 86.9755C506.116 86.7189 506.175 86.441 506.175 86.16V77.5696M506.175 68.5529V77.5696M506.175 77.5696L510.91 50.3061C511.287 48.1335 514.388 48.0808 514.838 50.2394L522.91 88.8886C522.938 89.0231 522.953 89.1601 522.953 89.2975V108.627V108.627C522.953 110.6 525.787 110.912 526.216 108.986L533.167 77.7398C533.192 77.6265 533.227 77.5157 533.272 77.4084L538 66L538.676 64.3566C539.51 62.3303 542.526 62.9265 542.526 65.1176V99.1095V117.143V144.193V156.175C542.526 156.828 542.845 157.44 543.38 157.814L551.627 163.576C551.773 163.678 551.904 163.798 552.018 163.934L563.499 177.7C563.799 178.059 563.963 178.512 563.963 178.981V186.772V199.376C563.963 200.227 564.502 200.985 565.306 201.265L578.465 205.841C579.269 206.121 579.808 206.879 579.808 207.73V215.477C579.808 216.293 580.304 217.027 581.06 217.332L588.978 220.524C590.063 220.961 591.29 220.378 591.636 219.261L599.292 194.575C599.351 194.383 599.381 194.186 599.381 193.985C599.381 188.946 599.381 180.879 599.381 186.772C599.381 192.604 608.741 205.511 613.838 211.764C614.132 212.124 614.294 212.574 614.294 213.039V219.61C614.294 220.602 615.02 221.443 616.001 221.589L640.176 225.173C640.886 225.278 641.598 224.995 642.041 224.432L651.148 212.863C651.426 212.511 651.577 212.076 651.577 211.627C651.577 207.788 651.577 199.932 651.577 194.286C651.577 186.772 648.78 174.75 651.577 170.742C654.373 166.735 651.577 163.228 651.577 153.711C651.577 146.096 651.577 136.178 651.577 132.171V132.171C651.577 130.613 653.84 130.421 654.102 131.957L661.874 177.558C662.183 179.373 664.574 179.841 665.545 178.276L676.426 160.732C677.308 159.31 679.441 159.535 680.008 161.108L684.15 172.611C684.182 172.701 684.221 172.788 684.266 172.872L693.285 189.838C693.439 190.127 693.519 190.449 693.519 190.777V199.713C693.519 200.39 693.861 201.02 694.428 201.389L710.989 212.164C711.148 212.267 711.32 212.347 711.501 212.402L725.858 216.742C726.046 216.799 726.241 216.827 726.437 216.827H734.555C735.131 216.827 735.68 217.076 736.059 217.51L742.321 224.661C742.7 225.094 743.249 225.343 743.825 225.343H750.746C751.113 225.343 751.473 225.242 751.786 225.051L765.288 216.827L778.908 206.579C779.145 206.401 779.34 206.171 779.478 205.908L787.446 190.681C787.585 190.417 787.657 190.122 787.657 189.823V189.823C787.657 187.719 790.609 187.247 791.266 189.246L798.504 211.292C798.715 211.933 799.234 212.425 799.886 212.6L815.067 216.679C815.428 216.776 815.808 216.77 816.165 216.662L829.11 212.749C829.954 212.494 830.532 211.716 830.532 210.834V207.637C830.532 205.638 833.14 204.875 834.217 206.559L840.567 216.488C840.711 216.712 840.897 216.905 841.115 217.056L847.309 221.336L861.094 228.744C861.224 228.814 861.361 228.87 861.504 228.909L886.069 235.755C886.324 235.826 886.562 235.947 886.77 236.111L899.674 246.283C900.155 246.662 900.436 247.241 900.436 247.853V252.979C900.436 254.774 902.618 255.66 903.87 254.373L920.16 237.624C921.044 236.715 922.54 236.848 923.25 237.898L928.642 245.866C929.064 246.49 929.801 246.824 930.548 246.73L971.386 241.593C972.386 241.467 973.137 240.617 973.137 239.609V231.285C973.137 231.001 973.197 230.719 973.314 230.46L980.662 214.227C981.132 213.188 982.375 212.752 983.391 213.269L999.002 221.217C999.156 221.296 999.299 221.394 999.429 221.51L1007.05 228.339C1007.42 228.668 1007.89 228.85 1008.39 228.85H1016.01L1035.42 230.837C1035.53 230.848 1035.64 230.867 1035.74 230.895L1054.23 235.863L1068.8 241.249C1069.02 241.331 1069.26 241.373 1069.5 241.373H1082.05C1083.16 241.373 1084.05 240.477 1084.05 239.373V238.734C1084.05 237.342 1085.44 236.375 1086.74 236.858L1097.88 240.972C1098.55 241.22 1099.02 241.819 1099.3 242.476C1100.13 244.382 1102.43 246.883 1107.35 246.883C1113.32 246.883 1145.26 243.21 1160.48 241.373H1163.55C1165.81 241.373 1172.33 246.326 1174.57 246.572C1176.36 246.769 1178.77 246.883 1181.92 246.883C1198.58 246.883 1214.39 246.883 1221.5 246.883C1222.36 246.883 1223.11 247.429 1223.41 248.231C1224.89 252.101 1227.73 257.904 1230.38 257.904C1233.15 257.904 1238.26 264.496 1240.97 268.52C1241.35 269.082 1241.98 269.425 1242.66 269.425H1263.94L1307.75 274.434L1358.86 281.927C1358.96 281.941 1359.06 281.948 1359.15 281.948H1367.4H1389.23C1389.58 281.948 1389.93 281.856 1390.23 281.681L1402.06 274.872C1402.54 274.593 1403.12 274.529 1403.65 274.696L1414 277.941" stroke="url(#paint2_linear_427_2304)" stroke-opacity="0.05" stroke-width="6"/>
<circle cx="512.5" cy="100.5" r="6.5" fill="#3494E8"/>
<path d="M126.17 300.193C125.273 300.189 124.506 299.953 123.869 299.483C123.233 299.013 122.746 298.33 122.409 297.432C122.072 296.534 121.903 295.453 121.903 294.188C121.903 292.926 122.072 291.848 122.409 290.955C122.75 290.061 123.239 289.379 123.875 288.909C124.515 288.439 125.28 288.205 126.17 288.205C127.061 288.205 127.824 288.441 128.46 288.915C129.097 289.384 129.583 290.066 129.92 290.96C130.261 291.85 130.432 292.926 130.432 294.188C130.432 295.456 130.263 296.54 129.926 297.438C129.589 298.331 129.102 299.015 128.466 299.489C127.83 299.958 127.064 300.193 126.17 300.193ZM126.17 298.676C126.958 298.676 127.574 298.292 128.017 297.523C128.464 296.754 128.688 295.642 128.688 294.188C128.688 293.222 128.585 292.405 128.381 291.739C128.18 291.068 127.89 290.561 127.511 290.216C127.136 289.867 126.689 289.693 126.17 289.693C125.386 289.693 124.771 290.08 124.324 290.852C123.877 291.625 123.652 292.737 123.648 294.188C123.648 295.157 123.748 295.977 123.949 296.648C124.153 297.314 124.443 297.82 124.818 298.165C125.193 298.506 125.644 298.676 126.17 298.676ZM133.168 300.108C132.857 300.108 132.59 299.998 132.366 299.778C132.143 299.555 132.031 299.286 132.031 298.972C132.031 298.661 132.143 298.396 132.366 298.176C132.59 297.953 132.857 297.841 133.168 297.841C133.478 297.841 133.745 297.953 133.969 298.176C134.192 298.396 134.304 298.661 134.304 298.972C134.304 299.18 134.251 299.371 134.145 299.545C134.043 299.716 133.906 299.852 133.736 299.955C133.565 300.057 133.376 300.108 133.168 300.108ZM140.186 300.193C139.288 300.189 138.521 299.953 137.885 299.483C137.249 299.013 136.762 298.33 136.425 297.432C136.088 296.534 135.919 295.453 135.919 294.188C135.919 292.926 136.088 291.848 136.425 290.955C136.766 290.061 137.254 289.379 137.891 288.909C138.531 288.439 139.296 288.205 140.186 288.205C141.076 288.205 141.839 288.441 142.476 288.915C143.112 289.384 143.599 290.066 143.936 290.96C144.277 291.85 144.447 292.926 144.447 294.188C144.447 295.456 144.279 296.54 143.942 297.438C143.605 298.331 143.118 299.015 142.482 299.489C141.845 299.958 141.08 300.193 140.186 300.193ZM140.186 298.676C140.974 298.676 141.589 298.292 142.033 297.523C142.48 296.754 142.703 295.642 142.703 294.188C142.703 293.222 142.601 292.405 142.396 291.739C142.196 291.068 141.906 290.561 141.527 290.216C141.152 289.867 140.705 289.693 140.186 289.693C139.402 289.693 138.786 290.08 138.339 290.852C137.893 291.625 137.667 292.737 137.663 294.188C137.663 295.157 137.764 295.977 137.964 296.648C138.169 297.314 138.459 297.82 138.834 298.165C139.209 298.506 139.66 298.676 140.186 298.676ZM150.514 300.193C149.616 300.189 148.849 299.953 148.213 299.483C147.577 299.013 147.09 298.33 146.753 297.432C146.416 296.534 146.247 295.453 146.247 294.188C146.247 292.926 146.416 291.848 146.753 290.955C147.094 290.061 147.582 289.379 148.219 288.909C148.859 288.439 149.624 288.205 150.514 288.205C151.404 288.205 152.168 288.441 152.804 288.915C153.44 289.384 153.927 290.066 154.264 290.96C154.605 291.85 154.776 292.926 154.776 294.188C154.776 295.456 154.607 296.54 154.27 297.438C153.933 298.331 153.446 299.015 152.81 299.489C152.173 299.958 151.408 300.193 150.514 300.193ZM150.514 298.676C151.302 298.676 151.918 298.292 152.361 297.523C152.808 296.754 153.031 295.642 153.031 294.188C153.031 293.222 152.929 292.405 152.724 291.739C152.524 291.068 152.234 290.561 151.855 290.216C151.48 289.867 151.033 289.693 150.514 289.693C149.73 289.693 149.115 290.08 148.668 290.852C148.221 291.625 147.995 292.737 147.991 294.188C147.991 295.157 148.092 295.977 148.293 296.648C148.497 297.314 148.787 297.82 149.162 298.165C149.537 298.506 149.988 298.676 150.514 298.676ZM160.632 300.159C159.92 300.159 159.28 300.023 158.712 299.75C158.147 299.473 157.696 299.095 157.359 298.614C157.022 298.133 156.842 297.583 156.82 296.966H158.524C158.566 297.466 158.787 297.877 159.189 298.199C159.59 298.521 160.071 298.682 160.632 298.682C161.079 298.682 161.475 298.58 161.82 298.375C162.168 298.167 162.441 297.881 162.638 297.517C162.839 297.153 162.939 296.739 162.939 296.273C162.939 295.799 162.837 295.377 162.632 295.006C162.428 294.634 162.145 294.343 161.786 294.131C161.429 293.919 161.02 293.811 160.558 293.807C160.206 293.807 159.852 293.867 159.496 293.989C159.14 294.11 158.852 294.269 158.632 294.466L157.024 294.227L157.678 288.364H164.075V289.869H159.138L158.768 293.125H158.837C159.064 292.905 159.365 292.722 159.74 292.574C160.119 292.426 160.524 292.352 160.956 292.352C161.664 292.352 162.295 292.521 162.848 292.858C163.405 293.195 163.842 293.655 164.161 294.239C164.482 294.818 164.642 295.485 164.638 296.239C164.642 296.992 164.471 297.665 164.126 298.256C163.786 298.847 163.312 299.312 162.706 299.653C162.104 299.991 161.412 300.159 160.632 300.159ZM172.862 288.364V300H171.107V288.364H172.862ZM179.186 300H175.419V288.364H179.305C180.446 288.364 181.425 288.597 182.243 289.062C183.061 289.525 183.688 290.189 184.124 291.057C184.563 291.92 184.783 292.956 184.783 294.165C184.783 295.377 184.561 296.419 184.118 297.29C183.679 298.161 183.042 298.831 182.209 299.301C181.375 299.767 180.368 300 179.186 300ZM177.175 298.466H179.089C179.976 298.466 180.713 298.299 181.3 297.966C181.887 297.629 182.326 297.142 182.618 296.506C182.91 295.866 183.055 295.085 183.055 294.165C183.055 293.252 182.91 292.477 182.618 291.841C182.33 291.205 181.9 290.722 181.328 290.392C180.756 290.062 180.046 289.898 179.197 289.898H177.175V298.466ZM197.074 294.182C197.074 295.424 196.847 296.492 196.392 297.386C195.938 298.277 195.314 298.962 194.523 299.443C193.735 299.92 192.839 300.159 191.835 300.159C190.828 300.159 189.928 299.92 189.136 299.443C188.348 298.962 187.727 298.275 187.273 297.381C186.818 296.487 186.591 295.42 186.591 294.182C186.591 292.939 186.818 291.873 187.273 290.983C187.727 290.089 188.348 289.403 189.136 288.926C189.928 288.445 190.828 288.205 191.835 288.205C192.839 288.205 193.735 288.445 194.523 288.926C195.314 289.403 195.938 290.089 196.392 290.983C196.847 291.873 197.074 292.939 197.074 294.182ZM195.335 294.182C195.335 293.235 195.182 292.437 194.875 291.79C194.572 291.138 194.155 290.646 193.625 290.312C193.098 289.975 192.502 289.807 191.835 289.807C191.165 289.807 190.566 289.975 190.04 290.312C189.513 290.646 189.097 291.138 188.79 291.79C188.487 292.437 188.335 293.235 188.335 294.182C188.335 295.129 188.487 295.928 188.79 296.58C189.097 297.227 189.513 297.72 190.04 298.057C190.566 298.39 191.165 298.557 191.835 298.557C192.502 298.557 193.098 298.39 193.625 298.057C194.155 297.72 194.572 297.227 194.875 296.58C195.182 295.928 195.335 295.129 195.335 294.182ZM203.497 300V288.364H207.645C208.55 288.364 209.3 288.528 209.895 288.858C210.49 289.187 210.935 289.638 211.23 290.21C211.526 290.778 211.673 291.419 211.673 292.131C211.673 292.847 211.524 293.491 211.224 294.062C210.929 294.631 210.482 295.081 209.884 295.415C209.289 295.744 208.541 295.909 207.639 295.909H204.787V294.42H207.48C208.052 294.42 208.516 294.322 208.872 294.125C209.228 293.924 209.49 293.652 209.656 293.307C209.823 292.962 209.906 292.57 209.906 292.131C209.906 291.691 209.823 291.301 209.656 290.96C209.49 290.619 209.226 290.352 208.866 290.159C208.51 289.966 208.041 289.869 207.457 289.869H205.253V300H203.497ZM213.595 300V291.273H215.237V292.659H215.328C215.487 292.189 215.768 291.82 216.169 291.551C216.574 291.278 217.033 291.142 217.544 291.142C217.65 291.142 217.775 291.146 217.919 291.153C218.067 291.161 218.182 291.17 218.266 291.182V292.807C218.197 292.788 218.076 292.767 217.902 292.744C217.728 292.718 217.554 292.705 217.379 292.705C216.978 292.705 216.62 292.79 216.305 292.96C215.995 293.127 215.749 293.36 215.567 293.659C215.385 293.955 215.294 294.292 215.294 294.67V300H213.595ZM219.736 300V291.273H221.435V300H219.736ZM220.594 289.926C220.298 289.926 220.045 289.828 219.832 289.631C219.624 289.43 219.52 289.191 219.52 288.915C219.52 288.634 219.624 288.396 219.832 288.199C220.045 287.998 220.298 287.898 220.594 287.898C220.889 287.898 221.141 287.998 221.349 288.199C221.562 288.396 221.668 288.634 221.668 288.915C221.668 289.191 221.562 289.43 221.349 289.631C221.141 289.828 220.889 289.926 220.594 289.926ZM227.396 300.176C226.552 300.176 225.824 299.985 225.214 299.602C224.608 299.216 224.143 298.684 223.817 298.006C223.491 297.328 223.328 296.551 223.328 295.676C223.328 294.79 223.495 294.008 223.828 293.33C224.161 292.648 224.631 292.116 225.237 291.733C225.843 291.35 226.557 291.159 227.379 291.159C228.042 291.159 228.633 291.282 229.152 291.528C229.671 291.771 230.089 292.112 230.408 292.551C230.73 292.991 230.921 293.504 230.982 294.091H229.328C229.237 293.682 229.029 293.33 228.703 293.034C228.381 292.739 227.949 292.591 227.408 292.591C226.934 292.591 226.519 292.716 226.163 292.966C225.811 293.212 225.536 293.564 225.339 294.023C225.143 294.477 225.044 295.015 225.044 295.636C225.044 296.273 225.141 296.822 225.334 297.284C225.527 297.746 225.8 298.104 226.152 298.358C226.508 298.612 226.927 298.739 227.408 298.739C227.73 298.739 228.021 298.68 228.283 298.562C228.548 298.441 228.769 298.269 228.947 298.045C229.129 297.822 229.256 297.553 229.328 297.239H230.982C230.921 297.803 230.737 298.307 230.43 298.75C230.124 299.193 229.713 299.542 229.197 299.795C228.686 300.049 228.086 300.176 227.396 300.176ZM236.56 300.176C235.7 300.176 234.959 299.992 234.338 299.625C233.721 299.254 233.243 298.733 232.906 298.062C232.573 297.388 232.406 296.598 232.406 295.693C232.406 294.799 232.573 294.011 232.906 293.33C233.243 292.648 233.713 292.116 234.315 291.733C234.921 291.35 235.63 291.159 236.44 291.159C236.933 291.159 237.41 291.241 237.872 291.403C238.334 291.566 238.749 291.822 239.116 292.17C239.484 292.519 239.774 292.972 239.986 293.528C240.198 294.081 240.304 294.754 240.304 295.545V296.148H233.366V294.875H238.639C238.639 294.428 238.548 294.032 238.366 293.688C238.185 293.339 237.929 293.064 237.599 292.864C237.274 292.663 236.891 292.562 236.452 292.562C235.974 292.562 235.558 292.68 235.202 292.915C234.849 293.146 234.577 293.449 234.384 293.824C234.194 294.195 234.099 294.598 234.099 295.034V296.028C234.099 296.612 234.202 297.108 234.406 297.517C234.615 297.926 234.904 298.239 235.276 298.455C235.647 298.667 236.08 298.773 236.577 298.773C236.899 298.773 237.192 298.727 237.457 298.636C237.723 298.542 237.952 298.402 238.145 298.216C238.338 298.03 238.486 297.801 238.588 297.528L240.196 297.818C240.067 298.292 239.836 298.706 239.503 299.062C239.173 299.415 238.759 299.689 238.259 299.886C237.762 300.08 237.196 300.176 236.56 300.176Z" fill="white"/>
<rect x="386" width="253" height="60" rx="30" fill="#3494E8"/>
<path d="M423.888 38.8182V20.6364H425.053V38.8182H423.888ZM427.531 26.2756C427.455 25.6032 427.143 25.0824 426.594 24.7131C426.045 24.339 425.353 24.152 424.52 24.152C423.923 24.152 423.407 24.2467 422.972 24.4361C422.536 24.6207 422.197 24.8764 421.956 25.2031C421.719 25.5251 421.601 25.892 421.601 26.304C421.601 26.6496 421.681 26.9479 421.842 27.1989C422.008 27.4498 422.223 27.6605 422.489 27.831C422.759 27.9967 423.047 28.1364 423.355 28.25C423.663 28.3589 423.959 28.4489 424.243 28.5199L425.663 28.8892C426.127 29.0028 426.603 29.1567 427.091 29.3509C427.579 29.545 428.031 29.8007 428.447 30.1179C428.864 30.4351 429.2 30.8281 429.456 31.2969C429.716 31.7656 429.847 32.3267 429.847 32.9801C429.847 33.804 429.634 34.5355 429.207 35.1747C428.786 35.8139 428.173 36.3182 427.368 36.6875C426.568 37.0568 425.599 37.2415 424.463 37.2415C423.374 37.2415 422.432 37.0687 421.636 36.723C420.841 36.3774 420.218 35.8873 419.768 35.2528C419.319 34.6136 419.07 33.8561 419.023 32.9801H421.224C421.267 33.5057 421.438 33.9437 421.736 34.294C422.039 34.6397 422.425 34.8977 422.893 35.0682C423.367 35.2339 423.885 35.3168 424.449 35.3168C425.069 35.3168 425.621 35.2197 426.104 35.0256C426.591 34.8267 426.975 34.5521 427.254 34.2017C427.534 33.8466 427.673 33.4323 427.673 32.9588C427.673 32.5279 427.55 32.1752 427.304 31.9006C427.063 31.6259 426.733 31.3987 426.317 31.2188C425.905 31.0388 425.438 30.8802 424.918 30.7429L423.199 30.2741C422.034 29.9569 421.111 29.4905 420.429 28.875C419.752 28.2595 419.413 27.4451 419.413 26.4318C419.413 25.5937 419.641 24.8622 420.095 24.2372C420.55 23.6122 421.165 23.1269 421.942 22.7812C422.718 22.4309 423.594 22.2557 424.57 22.2557C425.554 22.2557 426.423 22.4285 427.176 22.7741C427.934 23.1198 428.53 23.5956 428.966 24.2017C429.402 24.803 429.629 25.4943 429.648 26.2756H427.531ZM442.627 37.2415C441.505 37.2367 440.546 36.9408 439.751 36.3537C438.955 35.7666 438.347 34.9119 437.925 33.7898C437.504 32.6676 437.293 31.3158 437.293 29.7344C437.293 28.1577 437.504 26.8106 437.925 25.6932C438.352 24.5758 438.962 23.7235 439.758 23.1364C440.558 22.5492 441.514 22.2557 442.627 22.2557C443.74 22.2557 444.694 22.5516 445.489 23.1435C446.285 23.7306 446.893 24.5829 447.315 25.7003C447.741 26.813 447.954 28.1577 447.954 29.7344C447.954 31.3205 447.743 32.6747 447.322 33.7969C446.9 34.9143 446.292 35.7689 445.496 36.3608C444.701 36.9479 443.745 37.2415 442.627 37.2415ZM442.627 35.3452C443.612 35.3452 444.381 34.8646 444.935 33.9034C445.494 32.9422 445.773 31.5526 445.773 29.7344C445.773 28.527 445.646 27.5066 445.39 26.6733C445.139 25.8352 444.777 25.2008 444.303 24.7699C443.835 24.3343 443.276 24.1165 442.627 24.1165C441.647 24.1165 440.878 24.5994 440.319 25.5653C439.76 26.5312 439.478 27.9209 439.474 29.7344C439.474 30.9465 439.599 31.9716 439.85 32.8097C440.106 33.643 440.468 34.2751 440.937 34.706C441.406 35.1321 441.969 35.3452 442.627 35.3452ZM451.374 37.1349C450.985 37.1349 450.652 36.9976 450.372 36.723C450.093 36.4437 449.953 36.1075 449.953 35.7145C449.953 35.3262 450.093 34.9948 450.372 34.7202C450.652 34.4408 450.985 34.3011 451.374 34.3011C451.762 34.3011 452.096 34.4408 452.375 34.7202C452.654 34.9948 452.794 35.3262 452.794 35.7145C452.794 35.9749 452.728 36.214 452.595 36.4318C452.467 36.6449 452.297 36.8153 452.084 36.9432C451.871 37.071 451.634 37.1349 451.374 37.1349ZM460.147 37.2415C459.025 37.2367 458.066 36.9408 457.27 36.3537C456.475 35.7666 455.866 34.9119 455.445 33.7898C455.024 32.6676 454.813 31.3158 454.813 29.7344C454.813 28.1577 455.024 26.8106 455.445 25.6932C455.871 24.5758 456.482 23.7235 457.277 23.1364C458.078 22.5492 459.034 22.2557 460.147 22.2557C461.259 22.2557 462.213 22.5516 463.009 23.1435C463.804 23.7306 464.413 24.5829 464.834 25.7003C465.26 26.813 465.473 28.1577 465.473 29.7344C465.473 31.3205 465.263 32.6747 464.841 33.7969C464.42 34.9143 463.811 35.7689 463.016 36.3608C462.221 36.9479 461.264 37.2415 460.147 37.2415ZM460.147 35.3452C461.132 35.3452 461.901 34.8646 462.455 33.9034C463.014 32.9422 463.293 31.5526 463.293 29.7344C463.293 28.527 463.165 27.5066 462.909 26.6733C462.658 25.8352 462.296 25.2008 461.823 24.7699C461.354 24.3343 460.795 24.1165 460.147 24.1165C459.167 24.1165 458.397 24.5994 457.838 25.5653C457.28 26.5312 456.998 27.9209 456.993 29.7344C456.993 30.9465 457.119 31.9716 457.37 32.8097C457.625 33.643 457.988 34.2751 458.456 34.706C458.925 35.1321 459.489 35.3452 460.147 35.3452ZM468.092 37L474.442 24.4432V24.3366H467.098V22.4545H476.714V24.4006L470.386 37H468.092ZM485.905 37H483.575L488.81 22.4545H491.345L496.58 37H494.25L490.138 25.0966H490.024L485.905 37ZM486.295 31.304H493.852V33.1506H486.295V31.304ZM496.244 24.3438V22.4545H507.501V24.3438H502.963V37H500.775V24.3438H496.244ZM509.989 37V22.4545H512.183V28.7756H519.435V22.4545H521.636V37H519.435V30.6577H512.183V37H509.989ZM530.573 29.7273C530.573 27.947 530.807 26.3087 531.276 24.8125C531.745 23.3163 532.429 21.9361 533.328 20.6719H535.275C534.924 21.1406 534.597 21.7159 534.294 22.3977C533.991 23.0795 533.726 23.8277 533.499 24.642C533.272 25.4517 533.094 26.2921 532.966 27.1634C532.838 28.0298 532.775 28.8845 532.775 29.7273C532.775 30.8542 532.886 31.9953 533.108 33.1506C533.331 34.3059 533.632 35.3783 534.01 36.3679C534.389 37.3575 534.81 38.1648 535.275 38.7898H533.328C532.429 37.5256 531.745 36.1454 531.276 34.6491C530.807 33.1529 530.573 31.5123 530.573 29.7273ZM543.004 22.4545V37H540.802V24.6562H540.717L537.237 26.929V24.8267L540.866 22.4545H543.004ZM546.633 34.1591V32.3835L552.918 22.4545H554.317V25.0682H553.43L548.934 32.1847V32.2983H557.549V34.1591H546.633ZM553.529 37V33.6193L553.543 32.8097V22.4545H555.624V37H553.529ZM560.514 37L566.864 24.4432V24.3366H559.52V22.4545H569.136V24.4006L562.808 37H560.514ZM571.606 37V35.4091L576.528 30.3097C577.054 29.7557 577.487 29.2704 577.828 28.8537C578.173 28.4323 578.431 28.0322 578.602 27.6534C578.772 27.2746 578.858 26.8722 578.858 26.446C578.858 25.9631 578.744 25.5464 578.517 25.196C578.289 24.8409 577.979 24.5687 577.586 24.3793C577.193 24.1851 576.751 24.0881 576.258 24.0881C575.737 24.0881 575.283 24.1946 574.895 24.4077C574.506 24.6207 574.208 24.9214 574 25.3097C573.791 25.6979 573.687 26.1525 573.687 26.6733H571.592C571.592 25.7879 571.796 25.0137 572.203 24.3509C572.61 23.688 573.169 23.1742 573.879 22.8097C574.589 22.4403 575.396 22.2557 576.301 22.2557C577.215 22.2557 578.02 22.438 578.716 22.8026C579.416 23.1624 579.963 23.6548 580.356 24.2798C580.749 24.9001 580.946 25.6009 580.946 26.3821C580.946 26.9219 580.844 27.4498 580.64 27.9659C580.441 28.482 580.093 29.0573 579.596 29.6918C579.099 30.3215 578.408 31.0862 577.522 31.9858L574.632 35.0114V35.1179H581.18V37H571.606ZM591.464 34.2727V33.5057C591.464 32.9564 591.578 32.4545 591.805 32C592.037 31.5407 592.373 31.1738 592.814 30.8991C593.259 30.6198 593.796 30.4801 594.426 30.4801C595.07 30.4801 595.609 30.6174 596.045 30.892C596.481 31.1667 596.81 31.5336 597.032 31.9929C597.26 32.4522 597.373 32.9564 597.373 33.5057V34.2727C597.373 34.822 597.26 35.3262 597.032 35.7855C596.805 36.2401 596.471 36.607 596.031 36.8864C595.595 37.161 595.06 37.2983 594.426 37.2983C593.787 37.2983 593.247 37.161 592.806 36.8864C592.366 36.607 592.032 36.2401 591.805 35.7855C591.578 35.3262 591.464 34.822 591.464 34.2727ZM593.119 33.5057V34.2727C593.119 34.6799 593.216 35.0492 593.41 35.3807C593.604 35.7121 593.943 35.8778 594.426 35.8778C594.904 35.8778 595.238 35.7121 595.427 35.3807C595.617 35.0492 595.711 34.6799 595.711 34.2727V33.5057C595.711 33.0985 595.619 32.7292 595.434 32.3977C595.254 32.0663 594.918 31.9006 594.426 31.9006C593.952 31.9006 593.616 32.0663 593.417 32.3977C593.218 32.7292 593.119 33.0985 593.119 33.5057ZM584.149 25.9489V25.1818C584.149 24.6326 584.262 24.1283 584.49 23.669C584.722 23.2098 585.058 22.8428 585.498 22.5682C585.943 22.2936 586.481 22.1562 587.11 22.1562C587.754 22.1562 588.294 22.2936 588.73 22.5682C589.165 22.8428 589.494 23.2098 589.717 23.669C589.94 24.1283 590.051 24.6326 590.051 25.1818V25.9489C590.051 26.4981 589.937 27.0024 589.71 27.4616C589.487 27.9162 589.156 28.2831 588.716 28.5625C588.28 28.8371 587.745 28.9744 587.11 28.9744C586.467 28.9744 585.924 28.8371 585.484 28.5625C585.048 28.2831 584.717 27.9162 584.49 27.4616C584.262 27.0024 584.149 26.4981 584.149 25.9489ZM585.811 25.1818V25.9489C585.811 26.3561 585.905 26.7254 586.095 27.0568C586.289 27.3883 586.627 27.554 587.11 27.554C587.584 27.554 587.915 27.3883 588.105 27.0568C588.299 26.7254 588.396 26.3561 588.396 25.9489V25.1818C588.396 24.7746 588.304 24.4053 588.119 24.0739C587.934 23.7424 587.598 23.5767 587.11 23.5767C586.637 23.5767 586.301 23.7424 586.102 24.0739C585.908 24.4053 585.811 24.7746 585.811 25.1818ZM584.824 37L594.824 22.4545H596.521L586.521 37H584.824ZM604.547 29.7273C604.547 31.5123 604.312 33.1529 603.843 34.6491C603.375 36.1454 602.69 37.5256 601.791 38.7898H599.845C600.195 38.321 600.522 37.7457 600.825 37.0639C601.128 36.3821 601.393 35.6364 601.62 34.8267C601.848 34.0123 602.025 33.1695 602.153 32.2983C602.281 31.4271 602.345 30.5701 602.345 29.7273C602.345 28.6051 602.234 27.4664 602.011 26.3111C601.788 25.1558 601.488 24.0833 601.109 23.0938C600.73 22.1042 600.309 21.2969 599.845 20.6719H601.791C602.69 21.9361 603.375 23.3163 603.843 24.8125C604.312 26.3087 604.547 27.947 604.547 29.7273Z" fill="white"/>
<defs>
<linearGradient id="paint0_linear_427_2304" x1="1318" y1="225" x2="49.5" y2="363.5" gradientUnits="userSpaceOnUse">
<stop stop-color="#04F66F" stop-opacity="0"/>
<stop offset="0.182923" stop-color="#04F66F" stop-opacity="0.342541"/>
<stop offset="0.616266" stop-color="#04F66F"/>
<stop offset="0.864575" stop-color="#F60404" stop-opacity="0.290623"/>
<stop offset="1" stop-color="#F60404" stop-opacity="0"/>
</linearGradient>
<linearGradient id="paint1_linear_427_2304" x1="1318" y1="201" x2="49.5" y2="339.5" gradientUnits="userSpaceOnUse">
<stop stop-color="#04F66F" stop-opacity="0"/>
<stop offset="0.53402" stop-color="#04F66F"/>
<stop offset="1" stop-color="#04F66F" stop-opacity="0"/>
</linearGradient>
<linearGradient id="paint2_linear_427_2304" x1="1318" y1="158" x2="49.5" y2="296.5" gradientUnits="userSpaceOnUse">
<stop stop-color="#04F66F" stop-opacity="0"/>
<stop offset="0.53402" stop-color="#04F66F"/>
<stop offset="1" stop-color="#04F66F" stop-opacity="0"/>
</linearGradient>
</defs>
</svg>
